<?xml version="1.0" encoding="UTF-8" standalone="no"?>
<!-- Created with Inkscape (http://www.inkscape.org/) -->
<svg
   xmlns:dc="http://purl.org/dc/elements/1.1/"
   xmlns:cc="http://creativecommons.org/ns#"
   xmlns:rdf="http://www.w3.org/1999/02/22-rdf-syntax-ns#"
   xmlns:svg="http://www.w3.org/2000/svg"
   xmlns="http://www.w3.org/2000/svg"
   xmlns:xlink="http://www.w3.org/1999/xlink"
   xmlns:sodipodi="http://sodipodi.sourceforge.net/DTD/sodipodi-0.dtd"
   xmlns:inkscape="http://www.inkscape.org/namespaces/inkscape"
   height="561.11786"
   width="572.83917"
   id="svg4525"
   sodipodi:version="0.32"
   inkscape:version="0.45+0.46pre0+devel"
   version="1.0"
   sodipodi:docname="paper sheets.svg"
   inkscape:output_extension="org.inkscape.output.svg.inkscape"
   inkscape:export-filename="C:\Documents and Settings\SarXos\Pulpit\dev art\simple icon set\paper sheets.png"
   inkscape:export-xdpi="90"
   inkscape:export-ydpi="90">
  <defs
     id="defs4527">
    <inkscape:perspective
       sodipodi:type="inkscape:persp3d"
       inkscape:vp_x="-50 : 600 : 1"
       inkscape:vp_y="0 : 1000 : 0"
       inkscape:vp_z="700 : 600 : 1"
       inkscape:persp3d-origin="300 : 400 : 1"
       id="perspective46" />
    <inkscape:perspective
       sodipodi:type="inkscape:persp3d"
       inkscape:vp_x="-50 : 600 : 1"
       inkscape:vp_y="0 : 1000 : 0"
       inkscape:vp_z="700 : 600 : 1"
       inkscape:persp3d-origin="300 : 400 : 1"
       id="perspective47" />
    <inkscape:perspective
       sodipodi:type="inkscape:persp3d"
       inkscape:vp_x="-50 : 600 : 1"
       inkscape:vp_y="0 : 1000 : 0"
       inkscape:vp_z="700 : 600 : 1"
       inkscape:persp3d-origin="300 : 400 : 1"
       id="perspective44" />
    <linearGradient
       inkscape:collect="always"
       xlink:href="#linearGradient4454"
       id="linearGradient4519"
       gradientUnits="userSpaceOnUse"
       gradientTransform="matrix(0.993235,-0.1161216,0.1161216,0.993235,-28.719203,-14.006544)"
       x1="349.60196"
       y1="326.19418"
       x2="307.88712"
       y2="456.34085" />
    <linearGradient
       inkscape:collect="always"
       xlink:href="#linearGradient4240"
       id="linearGradient4517"
       gradientUnits="userSpaceOnUse"
       gradientTransform="matrix(0.9970679,7.6523148e-2,-7.6523148e-2,0.9970679,44.411491,-82.176194)"
       x1="336.34567"
       y1="336.50391"
       x2="321.64944"
       y2="448.71246" />
    <linearGradient
       inkscape:collect="always"
       xlink:href="#linearGradient4454"
       id="linearGradient4507"
       gradientUnits="userSpaceOnUse"
       gradientTransform="matrix(0.993235,-0.1161216,0.1161216,0.993235,-28.719203,-14.006544)"
       x1="349.60196"
       y1="326.19418"
       x2="307.88712"
       y2="456.34085" />
    <linearGradient
       inkscape:collect="always"
       xlink:href="#linearGradient4240"
       id="linearGradient4505"
       gradientUnits="userSpaceOnUse"
       gradientTransform="matrix(0.9970679,7.6523148e-2,-7.6523148e-2,0.9970679,44.411491,-82.176194)"
       x1="336.34567"
       y1="336.50391"
       x2="321.64944"
       y2="448.71246" />
    <linearGradient
       id="linearGradient4454">
      <stop
         style="stop-color:#d5d4d0;stop-opacity:1;"
         offset="0"
         id="stop4456" />
      <stop
         id="stop4464"
         offset="0.24538536"
         style="stop-color:#f1f1f1;stop-opacity:1;" />
      <stop
         id="stop4462"
         offset="0.49077073"
         style="stop-color:#ffffff;stop-opacity:1;" />
      <stop
         style="stop-color:#f0f0f0;stop-opacity:1;"
         offset="0.74538535"
         id="stop4466" />
      <stop
         style="stop-color:#d4d4d4;stop-opacity:1;"
         offset="1"
         id="stop4458" />
    </linearGradient>
    <linearGradient
       inkscape:collect="always"
       xlink:href="#linearGradient4454"
       id="linearGradient4523"
       gradientUnits="userSpaceOnUse"
       gradientTransform="matrix(0.993235,-0.1161216,0.1161216,0.993235,-28.719203,-14.006544)"
       x1="349.60196"
       y1="326.19418"
       x2="307.88712"
       y2="456.34085" />
    <linearGradient
       id="linearGradient4240">
      <stop
         style="stop-color:#eeeeed;stop-opacity:1;"
         offset="0"
         id="stop4242" />
      <stop
         style="stop-color:#a6a6a6;stop-opacity:1;"
         offset="1"
         id="stop4244" />
    </linearGradient>
    <linearGradient
       inkscape:collect="always"
       xlink:href="#linearGradient4240"
       id="linearGradient4521"
       gradientUnits="userSpaceOnUse"
       gradientTransform="matrix(0.9970679,7.6523148e-2,-7.6523148e-2,0.9970679,44.411491,-82.176194)"
       x1="336.34567"
       y1="336.50391"
       x2="321.64944"
       y2="448.71246" />
    <filter
       inkscape:collect="always"
       id="filter4488">
      <feGaussianBlur
         inkscape:collect="always"
         stdDeviation="1.5865538"
         id="feGaussianBlur4490" />
    </filter>
    <inkscape:perspective
       sodipodi:type="inkscape:persp3d"
       inkscape:vp_x="-50 : 600 : 1"
       inkscape:vp_y="0 : 1000 : 0"
       inkscape:vp_z="700 : 600 : 1"
       inkscape:persp3d-origin="300 : 400 : 1"
       id="perspective4533" />
    <linearGradient
       inkscape:collect="always"
       xlink:href="#linearGradient4240"
       id="linearGradient4578"
       gradientUnits="userSpaceOnUse"
       gradientTransform="matrix(0.9970679,7.6523148e-2,-7.6523148e-2,0.9970679,44.411491,-82.176194)"
       x1="336.34567"
       y1="336.50391"
       x2="321.64944"
       y2="448.71246" />
    <linearGradient
       inkscape:collect="always"
       xlink:href="#linearGradient4454"
       id="linearGradient4580"
       gradientUnits="userSpaceOnUse"
       gradientTransform="matrix(0.993235,-0.1161216,0.1161216,0.993235,-28.719203,-14.006544)"
       x1="349.60196"
       y1="326.19418"
       x2="307.88712"
       y2="456.34085" />
    <linearGradient
       inkscape:collect="always"
       xlink:href="#linearGradient4240"
       id="linearGradient4582"
       gradientUnits="userSpaceOnUse"
       gradientTransform="matrix(0.9970679,7.6523148e-2,-7.6523148e-2,0.9970679,44.411491,-82.176194)"
       x1="336.34567"
       y1="336.50391"
       x2="321.64944"
       y2="448.71246" />
    <linearGradient
       inkscape:collect="always"
       xlink:href="#linearGradient4454"
       id="linearGradient4584"
       gradientUnits="userSpaceOnUse"
       gradientTransform="matrix(0.993235,-0.1161216,0.1161216,0.993235,-28.719203,-14.006544)"
       x1="349.60196"
       y1="326.19418"
       x2="307.88712"
       y2="456.34085" />
    <linearGradient
       inkscape:collect="always"
       xlink:href="#linearGradient4240"
       id="linearGradient4586"
       gradientUnits="userSpaceOnUse"
       gradientTransform="matrix(0.9970679,7.6523148e-2,-7.6523148e-2,0.9970679,44.411491,-82.176194)"
       x1="336.34567"
       y1="336.50391"
       x2="321.64944"
       y2="448.71246" />
    <linearGradient
       inkscape:collect="always"
       xlink:href="#linearGradient4454"
       id="linearGradient4588"
       gradientUnits="userSpaceOnUse"
       gradientTransform="matrix(0.993235,-0.1161216,0.1161216,0.993235,-28.719203,-14.006544)"
       x1="349.60196"
       y1="326.19418"
       x2="307.88712"
       y2="456.34085" />
  </defs>
  <sodipodi:namedview
     id="base"
     pagecolor="#ffffff"
     bordercolor="#666666"
     borderopacity="1.0"
     inkscape:pageopacity="0.0"
     inkscape:pageshadow="2"
     inkscape:cx="261.42857"
     inkscape:cy="300.71988"
     inkscape:zoom="1"
     inkscape:document-units="px"
     inkscape:current-layer="layer1"
     showgrid="false"
     inkscape:window-width="1280"
     inkscape:window-height="968"
     inkscape:window-x="0"
     inkscape:window-y="22" />
  <metadata
     id="metadata4530">
    <rdf:RDF>
      <cc:Work
         rdf:about="">
        <dc:format>image/svg+xml</dc:format>
        <dc:type
           rdf:resource="http://purl.org/dc/dcmitype/StillImage" />
        <dc:title></dc:title>
        <dc:date></dc:date>
        <dc:creator>
          <cc:Agent>
            <dc:title></dc:title>
          </cc:Agent>
        </dc:creator>
        <dc:rights>
          <cc:Agent>
            <dc:title></dc:title>
          </cc:Agent>
        </dc:rights>
        <dc:publisher>
          <cc:Agent>
            <dc:title></dc:title>
          </cc:Agent>
        </dc:publisher>
        <dc:identifier></dc:identifier>
        <dc:source></dc:source>
        <dc:relation></dc:relation>
        <dc:language></dc:language>
        <dc:subject>
          <rdf:Bag />
        </dc:subject>
        <dc:coverage></dc:coverage>
        <dc:description></dc:description>
        <dc:contributor>
          <cc:Agent>
            <dc:title></dc:title>
          </cc:Agent>
        </dc:contributor>
        <cc:license
           rdf:resource="" />
      </cc:Work>
    </rdf:RDF>
  </metadata>
  <g
     inkscape:groupmode="layer"
     inkscape:label="Warstwa 1"
     id="layer1"
     transform="translate(-22.364575,-33.297762)">
    <g
       id="g4564"
       transform="matrix(0.8453817,0,0,0.8453817,43.457973,42.291301)">
      <g
         transform="matrix(3.1695819,-2.3808001,2.3752974,3.1905265,-1633.639,127.88396)"
         id="g4509">
        <path
           style="fill:none;fill-opacity:1;fill-rule:nonzero;stroke:#000000;stroke-width:2.951828;stroke-linecap:butt;stroke-miterlimit:0;stroke-dasharray:none;stroke-dashoffset:0;stroke-opacity:1;filter:url(#filter4488)"
           d="M 311.86303,285.43109 L 390.4829,276.64004 C 390.84408,276.5969 391.1694,276.85432 391.21233,277.21723 L 410.43384,372.05632 C 410.47675,372.41923 410.22056,372.74611 409.85937,372.78924 L 323.41759,383.11282 C 323.05641,383.15597 322.73109,382.89853 322.68817,382.53561 L 311.2886,286.16402 C 311.24566,285.80112 311.50186,285.47423 311.86303,285.43109 z"
           id="path4511"
           sodipodi:nodetypes="ccccccccc"
           transform="matrix(0.9734217,0,0,0.9836987,9.4411386,5.6772623)" />
        <path
           style="fill:#ffffff;fill-opacity:1;fill-rule:nonzero;stroke:url(#linearGradient4578);stroke-width:0.80000001;stroke-linecap:butt;stroke-miterlimit:0;stroke-dasharray:none;stroke-dashoffset:0;stroke-opacity:1"
           d="M 310.15766,284.32042 L 390.25244,275.40731 C 390.62039,275.36357 390.95181,275.62457 390.99555,275.99252 L 410.57765,372.14842 C 410.62137,372.51637 410.36037,372.84779 409.99241,372.89152 L 321.92898,383.35844 C 321.56103,383.40218 321.2296,383.14117 321.18588,382.77321 L 309.57245,285.06353 C 309.52871,284.69559 309.78972,284.36416 310.15766,284.32042 z"
           id="path4513"
           sodipodi:nodetypes="ccccccccc" />
        <path
           style="fill:url(#linearGradient4580);fill-opacity:1;fill-rule:nonzero;stroke:none;stroke-width:0.74155813;stroke-linecap:butt;stroke-miterlimit:0;stroke-dasharray:none;stroke-dashoffset:0;stroke-opacity:1"
           d="M 314.09399,286.83787 L 387.52847,278.67508 C 387.86582,278.63497 388.17037,278.88029 388.21135,279.2251 L 406.39582,369.35961 C 406.43679,369.70446 406.1982,370.01436 405.86086,370.05445 L 325.12193,379.65431 C 324.78456,379.69442 324.48001,379.44909 324.43905,379.10426 L 313.55902,287.5327 C 313.51804,287.18789 313.75665,286.87799 314.09399,286.83787 z"
           id="path4515"
           sodipodi:nodetypes="ccccccccc" />
      </g>
      <g
         transform="matrix(3.5666515,-1.7301605,1.7207509,3.5861557,-1551.8398,-225.38727)"
         id="g4497">
        <path
           style="fill:none;fill-opacity:1;fill-rule:nonzero;stroke:#000000;stroke-width:2.951828;stroke-linecap:butt;stroke-miterlimit:0;stroke-dasharray:none;stroke-dashoffset:0;stroke-opacity:1;filter:url(#filter4488)"
           d="M 311.86303,285.43109 L 390.4829,276.64004 C 390.84408,276.5969 391.1694,276.85432 391.21233,277.21723 L 410.43384,372.05632 C 410.47675,372.41923 410.22056,372.74611 409.85937,372.78924 L 323.41759,383.11282 C 323.05641,383.15597 322.73109,382.89853 322.68817,382.53561 L 311.2886,286.16402 C 311.24566,285.80112 311.50186,285.47423 311.86303,285.43109 z"
           id="path4499"
           sodipodi:nodetypes="ccccccccc"
           transform="matrix(0.9734217,0,0,0.9836987,9.4411386,5.6772623)" />
        <path
           style="fill:#ffffff;fill-opacity:1;fill-rule:nonzero;stroke:url(#linearGradient4582);stroke-width:0.80000001;stroke-linecap:butt;stroke-miterlimit:0;stroke-dasharray:none;stroke-dashoffset:0;stroke-opacity:1"
           d="M 310.15766,284.32042 L 390.25244,275.40731 C 390.62039,275.36357 390.95181,275.62457 390.99555,275.99252 L 410.57765,372.14842 C 410.62137,372.51637 410.36037,372.84779 409.99241,372.89152 L 321.92898,383.35844 C 321.56103,383.40218 321.2296,383.14117 321.18588,382.77321 L 309.57245,285.06353 C 309.52871,284.69559 309.78972,284.36416 310.15766,284.32042 z"
           id="path4501"
           sodipodi:nodetypes="ccccccccc" />
        <path
           style="fill:url(#linearGradient4584);fill-opacity:1;fill-rule:nonzero;stroke:none;stroke-width:0.74155813;stroke-linecap:butt;stroke-miterlimit:0;stroke-dasharray:none;stroke-dashoffset:0;stroke-opacity:1"
           d="M 314.09399,286.83787 L 387.52847,278.67508 C 387.86582,278.63497 388.17037,278.88029 388.21135,279.2251 L 406.39582,369.35961 C 406.43679,369.70446 406.1982,370.01436 405.86086,370.05445 L 325.12193,379.65431 C 324.78456,379.69442 324.48001,379.44909 324.43905,379.10426 L 313.55902,287.5327 C 313.51804,287.18789 313.75665,286.87799 314.09399,286.83787 z"
           id="path4503"
           sodipodi:nodetypes="ccccccccc" />
      </g>
      <g
         transform="matrix(4.7472159,0,0,4.7472159,-1355.8186,-1272.1986)"
         id="g4492">
        <path
           style="fill:none;fill-opacity:1;fill-rule:nonzero;stroke:#000000;stroke-width:2.951828;stroke-linecap:butt;stroke-miterlimit:0;stroke-dasharray:none;stroke-dashoffset:0;stroke-opacity:1;filter:url(#filter4488)"
           d="M 311.86303,285.43109 L 390.4829,276.64004 C 390.84408,276.5969 391.1694,276.85432 391.21233,277.21723 L 410.43384,372.05632 C 410.47675,372.41923 410.22056,372.74611 409.85937,372.78924 L 323.41759,383.11282 C 323.05641,383.15597 322.73109,382.89853 322.68817,382.53561 L 311.2886,286.16402 C 311.24566,285.80112 311.50186,285.47423 311.86303,285.43109 z"
           id="path4468"
           sodipodi:nodetypes="ccccccccc"
           transform="matrix(0.9734217,0,0,0.9836987,9.4411386,5.6772623)" />
        <path
           style="fill:#ffffff;fill-opacity:1;fill-rule:nonzero;stroke:url(#linearGradient4586);stroke-width:0.80000001;stroke-linecap:butt;stroke-miterlimit:0;stroke-dasharray:none;stroke-dashoffset:0;stroke-opacity:1"
           d="M 310.15766,284.32042 L 390.25244,275.40731 C 390.62039,275.36357 390.95181,275.62457 390.99555,275.99252 L 410.57765,372.14842 C 410.62137,372.51637 410.36037,372.84779 409.99241,372.89152 L 321.92898,383.35844 C 321.56103,383.40218 321.2296,383.14117 321.18588,382.77321 L 309.57245,285.06353 C 309.52871,284.69559 309.78972,284.36416 310.15766,284.32042 z"
           id="rect4237"
           sodipodi:nodetypes="ccccccccc" />
        <path
           style="fill:url(#linearGradient4588);fill-opacity:1;fill-rule:nonzero;stroke:none;stroke-width:0.74155813;stroke-linecap:butt;stroke-miterlimit:0;stroke-dasharray:none;stroke-dashoffset:0;stroke-opacity:1"
           d="M 314.09399,286.83787 L 387.52847,278.67508 C 387.86582,278.63497 388.17037,278.88029 388.21135,279.2251 L 406.39582,369.35961 C 406.43679,369.70446 406.1982,370.01436 405.86086,370.05445 L 325.12193,379.65431 C 324.78456,379.69442 324.48001,379.44909 324.43905,379.10426 L 313.55902,287.5327 C 313.51804,287.18789 313.75665,286.87799 314.09399,286.83787 z"
           id="path4248"
           sodipodi:nodetypes="ccccccccc" />
      </g>
    </g>
  </g>
</svg>
