<?xml version='1.0' encoding='utf-8'?>
<svg xmlns="http://www.w3.org/2000/svg" width="705.94pt" height="775.65pt" version="1.0" viewBox="0 0 705.94 775.65"> <g transform="translate(-171.74 906.82) scale(.1 -.1)"> <path d="m3445 9064c-208-14-771-91-980-134-203-42-288-52-420-49-243 5-239 5-269-15l-29-18 7-162c4-88 11-204 16-256 17-184 22-769 11-1280-7-283-16-821-21-1195s-14-795-19-935c-11-270-7-2538 5-2875 4-123 2-230-6-305-6-63-14-170-17-237l-6-121 27-27c31-31 57-31 193-1 87 19 153 12 353-39 132-33 213-49 415-81 154-25 662-30 945-10 466 33 846 40 1434 27 712-17 885-18 1206-7 221 7 303 6 495-9 243-19 487-17 695 6 151 16 436 16 570 1 131-16 221-6 254 28 20 19 20 20-2 82-27 77-27 89-3 119 19 23 24 24 163 24 122 0 153 4 211 23 83 28 111 63 102 127-3 22-12 50-20 62s-22 68-30 125c-20 134-62 307-130 532-58 195-159 580-199 766-87 393-155 972-176 1485-14 360-12 621 10 1145 25 597 53 979 112 1520 6 58 11 196 12 308l1 203-40 35c-22 19-48 42-57 51-25 23-93 159-117 233-11 36-33 121-48 190-25 113-28 144-28 321 0 149-3 200-13 212-12 14-31 15-140 11-110-5-148-2-282 21-162 28-258 33-510 26-80-2-203 1-275 7-85 7-178 8-270 2-77-5-252-9-390-9-256 0-349 7-725 59-147 21-176 21-545 14-441-9-481-9-1020-2-214 3-417 4-450 2z"/> <path d="m4505 8966c39 0 232 4 430 8l360 8 245-31c388-49 493-55 785-45 264 8 387 8 870 1 222-4 291-9 390-27 177-32 263-41 332-34l61 6v-138c0-222 54-489 129-637 13-27 23-50 21-52-7-6-149 88-228 151-46 38-152 135-235 215-320 311-460 419-563 435-32 5-48 3-59-9-23-23-1-57 37-57 29 0 97-48 183-129 106-100 258-367 302-532 13-50 31-150 41-222 19-152 33-189 79-211 63-30 78-25 245 89 108 73 182 105 246 105 84 0 94-24 94-237 0-168-8-278-54-773-53-564-86-1216-86-1731 0-821 105-1644 300-2339 28-102 69-248 91-325 93-331 118-449 143-662 9-70-2-75-124-56-63 9-254 17-575 22-588 11-677 19-1232 117-485 84-867 120-1403 130-498 10-934-15-1425-80-250-33-440-46-682-46-232 0-314 8-562 55-253 48-376 46-495-8l-51-24-1 171c-1 211-18 329-119 831-197 978-213 1365-105 2500 41 426 45 485 70 1015 6 118 18 323 26 455 21 335 30 1034 15 1263-17 267-52 500-96 638-6 20-4 20 137 16 160-5 239 4 576 68 225 42 503 82 732 105 115 11 241 13 615 8 259-4 502-7 540-7z" fill="#fff"/> <path d="m1874 8519c13-63 29-163 35-223 42-425 38-1292-10-2021-14-219-48-578-56-585-3-3-3 60 0 140 35 786 41 2089 14 2510-24 358-23 366 17 179z" fill="#fff"/> <path d="m7922 8066c37-26 96-62 132-81 69-36 69-38 22-49-46-11-131-56-235-124-66-44-98-59-106-52-8 6-14 54-18 123-9 186-56 324-177 517l-53 85 184-186c101-103 214-207 251-233z" fill="#fff"/> <path d="m1909 3005c33-148 67-308 75-355 42-233 58-487 43-662-10-120-10-128 8-148 24-27 54-24 180 14 127 38 245 37 469-4 231-42 390-53 641-46 241 7 373 17 675 51 740 83 1405 93 2045 30 195-20 301-35 700-100 547-90 767-109 1209-103 168 1 306 1 306 0 0-2-9-16-20-32-29-41-41-78-48-150-7-63-8-65-37-69-16-2-120 2-230 9-183 12-222 11-461-9-290-23-424-26-594-10-66 6-457 12-920 14-443 2-939 8-1103 13-329 11-668 3-1097-25-165-11-384-18-580-18-381 0-470 11-808 96-256 65-343 73-452 44-30-8-56-12-58-10s-9 41-15 87c-7 59-7 138 1 273 6 115 9 428 6 795-2 333-2 601 1 595 2-5 31-131 64-280z" fill="#fff"/> <path d="m8503 1669c61-16 42-22-43-15-93 8-118 15-98 27 14 9 77 4 141-12z" fill="#fff"/> </g> </svg>