<?xml version="1.0" encoding="UTF-8"?>
<svg viewBox="0 0 379.1 469.8625" xmlns="http://www.w3.org/2000/svg">
 <g transform="translate(-40.139 -13.623)">
  <path d="m162.95 464c-8.1435-1.1058-14.984-3.3357-22.55-7.351-3.713-1.9704-7.2739-3.5825-7.9131-3.5825s-2.4699-1.365-4.0683-3.0334-4.9451-4.2202-7.4371-5.6709c-4.295-2.5002-5.966-3.7787-17.25-13.198-2.5958-2.1668-7.0265-5.1952-9.8461-6.7298-4.6508-2.5313-5.5485-3.6287-9.6755-11.829-3.5467-7.0472-4.514-10.009-4.39-13.443 0.09041-2.5044-0.49408-5.401-1.3549-6.7148-1.1927-1.8204-1.5139-5.7094-1.5139-18.331 0-15.245-0.3655-18.608-3.1576-29.05-0.76901-2.8759-1.4838-18.937-1.9806-44.5-0.4275-22-1.0078-43.6-1.2895-48-1.5456-24.136-0.35111-34.947 4.5688-41.352 0.99352-1.2933 2.0958-3.9933 2.4496-6 1.2041-6.8308 4.2316-14.553 7.0738-18.042 8.4726-10.402 10.462-13.73 12.827-21.453 2.1804-7.1219 7.3549-16.458 12.001-21.653 0.7378-0.825 2.9996-6.675 5.0263-13s4.9892-14.461 6.5834-18.08 2.9069-7.2189 2.9169-8 1.36-3.4005 3-5.8207 2.9818-5.014 2.9818-5.7638c0-1.5168 3.9559-9.7534 8.9882-18.714 2.4018-4.2768 4.5355-6.5929 7.8305-8.5 2.491-1.4418 6.3634-4.4934 8.6052-6.7815s6.1011-5.16 8.5761-6.3822 6.1888-3.7376 8.2529-5.5899c3.2198-2.8894 4.4746-3.3678 8.8334-3.3678 3.3135 0 7.6864-1.0434 12.573-3 7.3701-2.9511 7.7902-3 25.794-3 25.001 0 30.208 1.1968 39.698 9.1259 3.8738 3.2366 8.2371 6.1564 9.6962 6.4885 4.3737 0.99555 20.611 10.292 22.133 12.672 7.5783 11.852 19.332 37.154 18.491 39.805-0.352 1.1091 0.249 3.7999 1.3816 6.1858 1.1025 2.3225 2.4882 6.0765 3.0794 8.3422s1.9081 5.1907 2.9265 6.5 2.144 3.9556 2.5011 5.8806c0.6804 3.6675 2.2242 6.3958 7.038 12.438 2.7415 3.4414 2.8297 3.8431 1.6364 7.4588-1.058 3.2056-1.0171 4.3679 0.2536 7.2121 0.8331 1.8649 2.0246 4.9657 2.6476 6.8907 0.6231 1.925 2.1745 5.075 3.4476 7 1.3224 1.9996 2.5217 5.6434 2.7975 8.5 0.2656 2.75 1.2084 6.575 2.0952 8.5s2.1661 8.8612 2.8429 15.414c1.0914 10.567 1.5347 12.263 3.9212 15 1.4798 1.6974 3.0316 4.2112 3.4484 5.5862 0.7344 2.4226 4.2032 8.6142 10.137 18.094 6.594 10.534 10.493 15.698 15.687 20.775 3.0206 2.9528 6.3136 7.2278 7.3177 9.5s3.4434 6.6648 5.4207 9.7614 4.8185 8.9848 6.3139 13.085c2.6816 7.3525 2.7135 7.7271 2.3287 27.37-0.4464 22.786-1.0471 26.33-6.0583 35.738-1.9987 3.7525-3.634 8.1815-3.634 9.8423s-0.9 4.1638-2 5.5622c-1.3324 1.6939-2 4.0568-2 7.079 0 2.7368-0.6286 5.231-1.5847 6.2875-0.8716 0.9631-1.8364 3.6276-2.1441 5.9212-0.4994 3.7233-1.8906 5.5061-12.989 16.645-8.0257 8.055-13.914 13.111-16.62 14.271-2.3048 0.988-4.8018 2.5328-5.5489 3.4329s-1.9961 1.6367-2.7756 1.6367-3.087 0.8242-5.1276 1.8316c-4.5771 2.2596-11.82 3.7576-24.224 5.0101-8.8285 0.8915-10.412 1.416-22 7.2847l-12.487 6.324-11.721 0.573c-10.571 0.5167-11.971 0.8081-14.274 2.9714-3.4088 3.2025-15.065 4.8384-35.506 4.9832-11.872 0.0841-16.436 0.4934-19.5 1.7488-3.7232 1.5256-9.4612 1.8273-20.25 1.065-2.0625-0.1457-4.65-0.0054-5.75 0.3118s-4.475 0.2407-7.5-0.1701z" fill="#c7c7c7"/>
  <path d="m156.4458,462.0787c-2.75-1.059-5.8242-1.9442-6.8317-1.967s-4.5115-1.6122-7.7869-3.5318-7.0208-3.7577-8.3234-4.0846-3.4235-1.7265-4.7131-3.1101-5.2699-4.4745-8.8449-6.8689-8.975-6.4015-12-8.9049c-3.025-2.5035-7.525-5.8667-9.99997-7.4738-8.44449-5.4836-9.96113-7.1899-13.94271-15.6864-2.9024-6.1935-3.82787-9.2783-3.41018-11.3667 .35082-1.7541-.08319-4.1562-1.11843-6.1904-1.3196-2.5929-1.80008-7.0633-2.18446-20.324-.28933-9.9815-1.17762-20.3029-2.1516-25-1.28988-6.2207-1.8062-16.5632-2.32138-46.5-.3644-21.175-1.09245-45.25-1.61791-53.5-1.22718-19.2677.14342-30.0354 4.62411-36.3279 1.16741-1.6395 2.12533-4.2614 2.12872-5.8265s.6089-4.0006 1.34557-5.4123 1.66919-3.8805 2.07224-5.4864 3.1145-5.8676 6.02545-9.4704c6.15879-7.6226 8.72831-12.3402 11.02572-20.243 1.50104-5.1634 7.16773-15.077 11.56573-20.2335 1.6514-1.9363 7.9591-19.6394 7.9591-22.338 0-.7331 1.575-4.53 3.5-8.4375 1.925-3.9075 3.5-7.8583 3.5-8.7797s.8775-2.7906 1.9499-4.154 3.0889-5.5048 4.4809-9.20319 4.1933-9.50608 6.2249-12.90599l5.0371-8.42392c.7388-1.23325 3.5075-3.33899 6.1527-4.67942s6.0758-4.09739 7.6235-6.12657c1.5934-2.08901 4.8132-4.55456 7.4226-5.68384 2.5346-1.09693 6.1834-3.46553 8.1084-5.26356 3.0429-2.8422 4.3671-3.33359 10.1392-3.76269 4.1544-.30883 8.7843-1.47563 12.3708-3.1176 5.5846-2.55671 6.2509-2.62405 25.9617-2.62405 11.1264,0 21.5345.4128 23.1291.91732s4.1147,1.18258 5.6003,1.50678 5.5919,3.04186 9.125,6.03925 8.7051,6.31657 11.4931,7.37594c9.3162,3.53987 18.1448,9.12851 21.3061,13.48708 1.665,2.2955 6.3679,10.92363 10.451,19.17363 6.0451,12.21418 7.4238,15.87123 7.4238,19.69093 0,2.5801.4363,4.9607.9696,5.2903s1.8868,3.679 3.0078,7.4431 2.6977,7.3911 3.5039,8.0602 1.7618,2.8587 2.1238,4.8659c.8402,4.6596 1.9216,6.7295 6.0498,11.5796 3.4492,4.0524 4.0415,6.4002 2.3919,9.4824-1.155,2.1582 2.866,14.4876 6.5311,20.026 1.3205,1.9954 2.6686,5.863 2.9959,8.5948s1.2394,6.9918 2.0269,9.4668c.7875,2.475 2.0622,9.6114 2.8326,15.8588 1.1828,9.59 1.7856,11.77 3.8714,14 1.3588,1.4526 2.8084,3.7662 3.2214,5.1412 .6429,2.1406 8.3374,15.2524 15.7926,26.9111 1.1997,1.8761 5.1654,6.6011 8.8127,10.5s7.6396,9.1139 8.8717,11.5889 3.7257,6.975 5.5414,10c1.8156,3.025 4.5683,8.65 6.1172,12.5 2.7455,6.8244 2.8158,7.4764 2.8055,26-.0117,20.9848-.3565,22.8739-6.6124,36.2294-2.1202,4.5262-3.8549,9.4052-3.8549,10.8423s-.9,3.757-2,5.1554c-1.3275,1.6876-2.0107,4.0945-2.0318,7.1577-.0175,2.5384-.6925,5.4887-1.5,6.5563s-1.4698,2.8676-1.4719,4-.8904,3.5131-1.9742,5.2906c-3.1695,5.1983-22.6796,24.0553-27.2933,26.3798-2.3258,1.1718-4.8237,2.6081-5.5509,3.1918-4.9138,3.9444-20.9292,8.3352-32.9391,9.0307-7.8261.4532-8.9584.8354-21.5,7.257l-13.2388,6.7786-11.5.5652c-9.6422.4739-11.9846.9151-14.5,2.7311-3.9876,2.879-22.5621,5.3341-40.3559,5.3341-10.2134,0-13.9551.368-16.3541,1.6086-2.3809,1.2312-4.5391,1.4502-9.2003.9334-7.4533-.8263-10.5109-.8528-17.5897-.1523-4.0606.4019-6.8085.0404-10.5-1.3811zm40-9.2719c5.0724-2.5141 4.842-2.2162 3.4448-4.4535-1.0081-1.6142-.776-2.3623 1.4919-4.8094 1.4771-1.5939 2.4626-3.59 2.1899-4.4359-1.881-5.8347-1.8803-6.0379.0197-6.0379 1.0337,0 2.3237,1.0125 2.8666,2.25 .6926,1.5786 2.463,2.6142 5.9332,3.4706 2.7204.6713 5.0848,1.0818 5.2543.9123 1.0434-1.0434-3.3148-6.6966-6.2284-8.0792-2.9462-1.3981-3.3903-2.0311-2.8724-4.0944 .4143-1.6507.1404-2.6219-.8462-3.0005-.8023-.3079-2.4863-2.7536-3.7422-5.4351-1.5304-3.2674-3.0631-5.0709-4.6473-5.4686-1.8238-.4577-2.3639-1.2743-2.3639-3.5742 0-1.6395-.525-2.9809-1.1666-2.9809s-.862-.3047-.4896-.6771 1.9099.4616 3.4167,1.8534c3.7876,3.4985 5.7712,3.9986 7.6456,1.9275 1.9539-2.159 2.0298-3.749.2294-4.8041-.7505-.4399-2.0708-2.1825-2.934-3.8726s-2.2743-3.6576-3.1355-4.3724c-2.4694-2.0494-1.9868-5.0547.8116-5.0547 1.3076,0 2.9377-.675 3.6224-1.5 1.4954-1.8019 5.1375-1.9625 6.8-.3 .9334.9333 1.2.5161 1.2-1.8776 0-1.6926-.5625-3.5427-1.25-4.1113-1.8044-1.4923-6.75-.3056-6.75,1.6197 0,1.4399-.1524,1.4453-1.5427.055-1.2853-1.2853-1.3627-2.3458-.4635-6.3579 1.0052-4.4854.896-5.0795-1.5933-8.6716-1.4699-2.121-2.9642-3.8563-3.3209-3.8563s-1.392-1.2375-2.3009-2.75-2.9185-4.1182-4.4656-5.7904-3.5556-4.1753-4.4632-5.5624c-1.5206-2.3241-9.5377-11.6715-18.352-21.3972-12.1498-13.4061-14.4547-16.0794-14.4751-16.7887-.0125-.4337-1.8501-2.6837-4.0835-5-3.6103-3.7442-4.1704-4.0172-5.0497-2.4613-.599,1.0599-2.1757,1.75-3.9983,1.75-1.9262,0-2.7656-.3943-2.3323-1.0954 .9668-1.5644-1.598-5.9075-3.4779-5.8893-.8696.0084-2.2561.4666-3.0811,1.0183-1.3082.8747-1.2763,1.1348.25,2.0344 .9625.5672 1.75,1.9176 1.75,3.0007 0,1.5446-.4866,1.8472-2.2564,1.403s-2.6524.104-4.0871,2.5328c-2.3385,3.9586-1.5529,5.9955 2.3122,5.9955 2.0278,0 3.0313.4965 3.0313,1.5 0,.825-.675,1.5-1.5,1.5s-2.3769.8769-3.4488,1.9488c-2.0302,2.0302-1.8431,2.2789 2.4488,3.2546 2.8402.6457 8.9621,4.7155 8.7113,5.7911-.1589.681.4036,2.295 1.25,3.5866 2.0365,3.1082 1.9411,3.7573-.4603,3.1294-2.4633-.6442-3.453.6694-1.6388,2.1751 1.0526.8735 1.105,1.8633.2443,4.6133-1.1417,3.6474-3.2325,5.0029-2.317,1.5021 .567-2.1683-.7578-3.6703-1.7794-2.0173-.9423,1.5246-3.5101,1.223-3.5101-.4123 0-2.1593-2.858-4.5714-5.4164-4.5714-3.2656,0-5.3343-2.7898-6.2884-8.4804-.6496-3.8747-1.419-5.2931-3.5069-6.465-3.1838-1.787-4.4032-1.0122-2.6997,1.7155 .6749,1.0807.9333,2.7306.5742,3.6664-.6347,1.654-1.6353,1.6177-6.5624-.2382-1.9974-.7523-.5457,4.6653 1.9738,7.3661 2.6208,2.8095 2.4188,4.4356-.5511,4.4356-3.1062,0-5.7282-3.7993-6.4731-9.3798-.4414-3.3071-.994-4.1833-2.79997-4.4398-2.79633-.3971-2.857-1.3203-.196-2.9821 1.24497-.7775 1.85397-1.9554 1.54627-2.9905-1.31546-4.425-1.65287-13.4716-.69557-18.6501 .87437-4.7296.78637-6.2545-.50482-8.7513l-1.56362-3.0237-2.72285,2.6086c-1.49756,1.4348-3.25035,2.6087-3.89508,2.6087s-1.87191,1.0678-2.72708,2.373c-1.23849,1.8901-1.49751,4.8824-1.27305,14.7064 .27938,12.2277.30324,12.3387 2.7818,12.9435 1.65701.4043 2.39738,1.1931 2.19567,2.3392-.16739.9511.57095,2.4962 1.64074,3.4336s2.21579,3.2057 2.54666,5.0409l.60157,3.3366-3.99232-.6745c-3.59704-.6077-3.99232-.4678-3.99232,1.4134 0,1.1483.675,2.1441 1.5,2.2129s2.0625.1812 2.75.25 1.39107,1.1166 1.56348,2.3286 2.75991,4.8115 5.74999,7.9988 5.4365,6.1752 5.4365,6.6399-.9,1.0803-2,1.3679c-2.883.7539-2.4717,2.7293 1.3517,6.4916 1.8435,1.814 3.6442,4.5045 4.0017,5.9788 .4261,1.7575 1.4207,2.7907 2.8881,3 1.3209.1885 2.3687,1.139 2.5569,2.3194 .6397,4.014 1.2029,4.8987 2.3733,3.7283 1.4561-1.4561-2.3379-9.7118-5.1564-11.2202-1.1084-.5932-2.0153-1.7377-2.0153-2.5433s-.675-1.4648-1.5-1.4648c-.8734,0-1.5-.9083-1.5-2.1743v-2.1744l2.25,2.0253c1.2375,1.114 3.0375,2.3033 4,2.643s1.75,1.4836 1.75,2.542c0,1.9927 2.4954,3.5683 4.0903,2.5826 1.2992-.8029 1.1357-2.1658-.7319-6.1015-1.1589-2.4421-1.3292-3.7719-.5791-4.522s.4655-2.208-.9676-4.9576c-1.5268-2.9292-1.7542-4.2274-.9173-5.2359 .6631-.7989.8412-2.7123.4406-4.7341-.611-3.0841-.5203-3.2681.9964-2.0207 .9177.7549 1.6686,2.134 1.6686,3.0648 0,.9526 1.5447,2.4289 3.534,3.3776 4.278,2.04 4.466,2.0523 4.466.2922 0-1.7015 2.4483-2.756 4.5373-1.9544 .8455.3245 2.1725,2.1104 2.949,3.9687s1.8655,3.3787 2.4201,3.3787 2.2651-1.575 3.801-3.5c2.9987-3.7583 4.2926-4.3717 4.2926-2.0352 0,1.251 2.8178,3.5352 4.3611,3.5352 .4692,0 3.6389-5.8544 3.6389-6.7211 0-.2275-.7938-.1618-1.7641.1462-2.6239.8328-4.679-2.8125-2.5716-4.5615 1.7743-1.4725 8.1431-1.9844 8.9261-.7175 .2811.4549.0899,2.3525-.425,4.217-1.1179,4.0488-.7772,4.6228 4.074,6.8656 3.738,1.7282 3.7406,1.7278 7-1.0813 1.7934-1.5455 4.0948-3.1147 5.1144-3.4871 1.1192-.4089 1.6269-1.2682 1.2814-2.1688-.8952-2.3327.673-1.6919 2.7135,1.1087 1.0167,1.3956 1.628,3.3809 1.3584,4.4118-.5923,2.2651 1.7304,4.4558 5.7929,5.4635l3,.7443-3.25,1.5715c-1.7875.8643-3.25,1.9399-3.25,2.3901 0,1.8204-2.7516.6591-3.7785-1.5947-1.8683-4.1005-5.0531-4.299-8.2817-.5162-2.3888,2.7989-3.0373,3.0934-4.3723,1.9855-.8621-.7155-1.5675-1.8736-1.5675-2.5734 0-.7264-1.6095-1.4596-3.75-1.7083-2.0625-.2396-4.425-.6244-5.25-.855-2.3588-.6594-1.2735,3.2596 1.5558,5.6182 1.3443,1.1207 2.4442,2.6103 2.4442,3.3103s3.375,4.5505 7.5,8.5568 7.5,8.0638 7.5,9.0167 1.314,3.0464 2.9199,4.6523 3.2399,4.3772 3.6311,6.1585c.8184,3.726 2.7629,7.0053 6.6817,11.2679 3.8355,4.172 3.502,5.1666-1.7327,5.1666-3.0833,0-4.5-.4197-4.5-1.3333 0-.7333.765-1.3333 1.7-1.3333 1.2194,0 1.3941-.306.6179-1.0821s-1.6809-.7082-3.2.2405c-2.4782,1.5477-2.6948,2.6829-.661,3.4634 1.0244.3931 1.2817,1.4354.8666,3.5108-.4357,2.1786-.097,3.35 1.2931,4.4724 1.3456,1.0864 1.5265,1.6692.6334,2.0411-1.4845.6182-1.6884,3.3539-.25,3.3539 .55,0 1,1.1391 1,2.5313s.7095,2.8037 1.5766,3.1364 1.981,1.6687 2.4753,2.9686 1.5848,2.3637 2.4234,2.3637 1.5247.7379 1.5247,1.6397 .7875,2.2216 1.75,2.9327c1.3158.9721 1.4664,1.5809.6069,2.4533-.8661.8793-1.7746.7466-3.75-.5476-1.4338-.9395-2.6069-2.2725-2.6069-2.9623 0-1.9786-7.0981-2.737-9.0536-.9673-1.4544,1.3162-1.9766,1.3171-4.5002.0079-3.5258-1.8292-4.1819-1.2996-2.4345,1.9653 1.0295,1.9238 1.0714,2.7952.1774,3.6892s-2.0257.1716-4.7911-3.0591c-3.2556-3.8035-3.7452-4.0593-4.8575-2.538-1.3302,1.8191-3.5405,1.1366-3.5405-1.0934 0-1.4744-5.3265-3.0547-6.9384-2.0585-.5429.3356-2.795-.5311-5.0045-1.9259s-4.1609-2.536-4.3364-2.536-.1342,1.5836.0918,3.5192c.2971,2.5449 1.412,4.3444 4.027,6.5 1.9889,1.6394 4.1596,2.9808 4.8237,2.9808s1.7825,1.5905 2.4855,3.5345c.7517,2.0789 2.1168,3.7374 3.3147,4.0272 7.3898,1.788 12.5433,2.149 24.0366,1.6838 10.19-.4125 13.8647-.9548 17-2.5088zm-15.9288-3.1048c-3.9428-3.7186-4.5335-5.6319-1.7385-5.6319 1.5695,0 8.1673,6.8191 8.1673,8.4413 0,1.5955-3.2764.1636-6.4288-2.8094zm-27.4942-2.7089c-3.4772-3.4772-3.9781-5.923-1.213-5.923 1.6306,0 7.136,6.4063 7.136,8.3037 0,1.688-3.1006.4417-5.923-2.3807zm37.105-12.423c-1.0061-2.2081-.9081-2.5.8395-2.5 1.4438,0 1.9785.6757 1.9785,2.5 0,1.375-.3777,2.5-.8394,2.5s-1.3521-1.125-1.9786-2.5zm7.9394-5.5498c-1.2402-1.6774-2.0873-3.5525-1.8825-4.1669 .531-1.593 4.7611,3.2093 4.7611,5.4052 0,2.4249-.2498,2.3174-2.8786-1.2383zm-12.1214.4907c0-.8574.45-1.2809 1-.9409s1,1.0414 1,1.559-.45.941-1,.941-1-.7016-1-1.5591zm4-12.4409c-.6884-1.2865-.7135-2-.0703-2 .55,0 1.4816.9 2.0703,2 .6885,1.2864.7136,2 .0704,2-.55,0-1.4817-.9-2.0704-2zm-1.5-17.9773c-4.5439-3.9862-6.5-6.086-6.5-6.9773 0-1.4156 3.1453-1.2673 5.0138.2364 1.5374,1.2372 4.9862,6.2055 4.9862,7.183 0,.8347-2.3885.533-3.5-.4421zm-12.25-12.9663c-1.2375-1.0324-2.25-2.3663-2.25-2.9644s-1.575-2.7572-3.5-4.7981c-4.1292-4.3777-4.384-6.0339-1.0568-6.869 3.4069-.8551 4.5568.1588 4.5568,4.0175 0,2.4548.51,3.4577 1.9498,3.8342 2.1201.5544 6.2619,6.5719 5.4394,7.9027-.8119,1.3137-2.7174.8974-5.1392-1.1229zm16.9167-2.0564c.5034-1.5101 2.1114-1.6657 2.5833-.25 .2292.6875-.3333,1.25-1.25,1.25s-1.5166-.45-1.3333-1zm1.0222-2.7138c-2.8615-.5465-3.6901-2.4811-2.2307-5.2081 1.6568-3.0957 4.3969-2.5601 5.9953,1.1719 .7655,1.7875 1.5767,3.5875 1.8026,4 .4269.7798-1.6046.793-5.5672.0362zm-88.8146-26.7532c-1.053-2.7443.1956-3.7725 1.3921-1.1465 .7473,1.6401.8146,2.6135.1808,2.6135-.5555,0-1.2633-.6602-1.5729-1.467zm5.7197-2.9198c-.818-.9856-.8604-1.6395-.1355-2.0876 .5806-.3588 1.3331.0705 1.6721.9541 .8442,2.1999-.0836,2.8843-1.5366,1.1335zm51.1156-2.8272c-3.8033-1.8727-2.2796-4.1777 3.3021-4.9954 4.0957-.5999 5.2172-.4264 6.2672.97 2.2252,2.9591 1.054,4.7212-3.2875,4.9463-2.1952.1138-5.0221-.3006-6.2818-.9209zm-1.5516-18.2351c-.3717-.9685-.0756-1.2647.893-.893 1.5817.6069 1.9936,2.3421.556,2.3421-.4911,0-1.1432-.6521-1.449-1.4491zm-11.5728-12.8009c-.9799-2.593-.546-3.75 1.4065-3.75 1.5596,0 2.9574,3.4643 2.0139,4.991-1.0371,1.678-2.5206,1.1398-3.4204-1.241zm-15.4613-4.2879c-.6441-1.6785 1.6316-3.0403 3.3282-1.9917 .5764.3562 1.0479,1.296 1.0479,2.0886 0,1.9293-3.6294,1.8489-4.3761-.0969zm92.7723,136.6526c.9383-1.0368 3.0437-2.1527 4.6786-2.4797 4.1304-.8261 4.8819-3.4417 1.7367-6.0449-1.9861-1.6439-4.8115-7.0694-4.8115-9.2394 0-.1929 1.35-.3507 3-.3507 4.1543,0 3.8236-3.3622-.9105-9.2562-.7758-.9658-1.2149-1.9517-.9758-2.1908 .8767-.8767 8.9796,3.4343 8.7785,4.6704-.4452,2.7369 1.3546,4.7766 4.2148,4.7766 1.5912,0 2.893-.45 2.893-1s-.3375-1.01-.75-1.0223-1.8634-.8778-3.2242-1.9234c-2.4736-1.9007-2.4737-1.9019-.5-4.0968s1.9703-2.1981-.2758-3.6985c-1.2375-.8266-2.25-1.9481-2.25-2.4922 0-.8104-4.6383-6.8735-9.4955-12.4123-.5524-.63-2.1245-2.5425-3.4935-4.25s-2.9564-3.1045-3.5277-3.1045-1.8094-.9-2.7512-2-2.5385-2-3.548-2c-2.0538,0-6.7982,4.5264-5.5093,5.2562 1.112.6296 6.4888,2.0387 8.2128,2.1523 .7632.0503 1.8621.8412 2.442,1.7576 1.4347,2.267-.7701,4.8339-4.152,4.8339-2.0048,0-2.3109.2666-1.3776,1.2 .66.66 1.2,2.2037 1.2,3.4304 0,1.5391.686,2.3295 2.213,2.55 1.5956.2304 2.3996,1.2377 2.8821,3.6105 .368,1.81 1.3744,4.0703 2.2364,5.0229 2.4878,2.749.6256,4.7154-3.202,3.3812-3.9497-1.3769-5.3571.3924-2.2886,2.8772 1.1875.9616 2.1591,2.4933 2.1591,3.4038s.4847,2.561 1.077,3.6678 .7482,2.7648.3464,3.6843-.6224,2.5234-.4901,3.5643c.2029,1.5953-.2253,1.7992-2.7282,1.2986-1.6329-.3266-3.2481-.3147-3.5892.0264-1.01,1.01 2.5301,4.2826 4.6327,4.2826 1.0977,0 2.1656.8676 2.4617,2 .6568,2.5118 2.4762,2.5564 4.6859.1147zm-4.7295-36.7814c-1.2147-1.2147-.6909-2.2799.8333-1.695 .825.3166 1.5.9775 1.5,1.4687 0,1.0484-1.3776,1.182-2.3333.2263zm33.7863,32.5061c2.7153-1.2371 3.4309-4.2863 1.2064-5.1399-1.9777-.7589-3.2963.4503-3.8717,3.5505-.5876,3.1663-.6776,3.1126 2.6653,1.5894zm-4.453-4.8394c0-.55-.9-1-2-1s-2,.45-2,1 .9,1 2,1 2-.45 2-1zm35.2786-4.0499c4.1584-4.3276 4.1465-4.194.8864-9.9501-.4673-.825-1.2896-2.3723-1.8274-3.4384s-2.6337-2.7977-4.6577-3.848c-3.3744-1.7512-5.0587-4.7136-2.6799-4.7136 1.4536,0 1.2287-4.7514-.25-5.2816-.6875-.2465-2.0102-.0578-2.9393.4194-1.0189.5233-1.9352.4696-2.309-.1351-.3408-.5515-.1402-1.0027.4459-1.0027s2.0438-1.125 3.2394-2.5 2.9444-2.5 3.8864-2.5c1.8521,0 3.3048,2.5791 2.3357,4.147-.3285.5317-.3265,2.0459.0046,3.3649 .7223,2.878 7.0694,5.162 9.2699,3.3357 1.7324-1.4378 1.6788-3.7714-.1024-4.4549-1.1693-.4487-6.5812-10.2666-6.5812-11.9391 0-.2705 1.125-.2094 2.5.1357 3.2373.8125 3.151.0204-.5-4.5893-1.65-2.0833-3-4.9606-3-6.3939v-2.6061l-2.0511,2.0511c-1.3998,1.3998-2.7495,1.8505-4.25,1.4192-2.6433-.7597-6.6989-5.0134-6.6989-7.0261 0-.7943-.6891-1.4442-1.5313-1.4442s-1.7905-.675-2.107-1.5-1.54-1.5069-2.7187-1.5153c-3.1874-.0228-4.2841-1.0474-6.1725-5.7668-1.5967-3.9906-3.8909-6.2179-6.4047-6.2179-1.9165,0-1.1173,3.1737.9342,3.7102 1.5463.4044 2,1.364 2,4.23 0,3.4523.2577,3.7707 3.75,4.6334 2.9259.7228 3.8248,1.4758 4.0902,3.4264 .1872,1.375 1.637,3.7784 3.2218,5.341s3.1703,4.3801 3.5232,6.2611 1.0405,3.6665 1.5282,3.9679c1.6283,1.0064.9114,3.43-1.0146,3.43-1.1274,0-2.777-1.4844-4.053-3.647-1.6729-2.8354-2.4182-3.3798-3.3488-2.446s-.6771,1.5938 1.1331,2.9617c1.9843,1.4994 2.2275,2.3076 1.6387,5.446-.3802,2.0269-.8907,3.6853-1.1343,3.6853s-1.881-1.348-3.6387-2.9954-3.5763-2.9975-4.0414-3c-1.6673-.0091-6.6544,4.1603-6.6544,5.5635 0,1.7881-1.6335,1.8667-2.7003.1299-.4398-.716-2.9207-2.6285-5.5132-4.25s-4.7299-3.4154-4.75-3.9866-.9219-2.7753-2.0041-4.8979-1.777-4.1678-1.544-4.5447c.9941-1.6085 6.7052.3119 7.7505,2.6062 1.1498,2.5233 3.7611,3.2635 3.7611,1.0661 0-.7199-.6224-2.1601-1.3832-3.2006-.9935-1.3586-1.0937-2.3552-.3559-3.5367 1.0749-1.7211-.4971-4.5554-6.5109-11.7386-3.5125-4.1957-3.5831-6.0971-.2021-5.4508 2.8522.5452 6.045-2.5234 4.3848-4.2144-1.2883-1.3123-1.1699-4.2854.2045-5.1348 .6298-.3892 1.8851.2886 2.813,1.5187 1.5043,1.9943 1.8098,2.0602 2.9853.6439 .7202-.8678 2.1543-1.5778 3.187-1.5778s1.8775-.45 1.8775-1-1.35-1-3-1c-3.0609,0-3.5862-1.0929-3.0397-6.3239 .1151-1.1025-.6304-2.0386-1.8849-2.3667-1.205-.3151-2.0754-1.3601-2.0754-2.4918 0-3.076-1.8926-5.8176-4.0161-5.8176-2.1995,0-3.866-4.5179-2.2592-6.1247 .5381-.5381.7703-2.0664.5161-3.3963-.5656-2.9585-2.7683-5.0525-3.7108-3.5276-.3564.5767-1.7464,1.0486-3.089,1.0486-3.0029,0-3.3533-2.9487-.441-3.7103 1.1-.2876 2-1.1613 2-1.9415 0-2.4446-3.1453-6.3482-5.115-6.3482-1.2183,0-1.885-.7074-1.885-2 0-1.1111-.6666-2-1.5-2-2.0575,0-1.8806,1.5672.4189,3.711 1.0554.9839 2.2448,3.0886 2.6431,4.6771 .7148,2.8505.6786,2.8796-2.7804,2.2307-4.4376-.8325-7.1946,1.5546-3.8579,3.3403 2.9611,1.5847 3.7257,5.6658 1.5185,8.1048-2.2016,2.4328-.724,4.4361 3.272,4.4361 1.4314,0 2.7859.5387 3.01,1.1972 .2589.7611-.5673,1.1254-2.2677,1-3.4985-.258-5.8128,2.922-3.2065,4.4059 .9625.5479 1.75,1.7927 1.75,2.7662s1.125,2.7482 2.5,3.9437c1.445,1.2564 2.5,3.25 2.5,4.7242 0,1.8546.4668,2.4703 1.7109,2.2566 1.2792-.2197 1.8702.6522 2.3426,3.4562 .8652,5.1361-.9126,4.8665-4.9461-.75-3.3793-4.7057-5.7109-5.916-4.8179-2.501 .2875,1.0994.115,2.251-.3833,2.559-1.881,1.1625-.9149,6.5294 1.5938,8.8544 1.375,1.2743 2.5,3.0011 2.5,3.8372s1.125,2.2575 2.5,3.1584c3.1445,2.0603 3.6008,6.2515.5,4.592-1.1-.5887-2-1.6454-2-2.3481s-1.2874-2.5112-2.861-4.0188c-2.3027-2.2062-3.4095-2.6033-5.6719-2.0355-2.7857.6991-2.7926.7204-.768,2.3597 1.1236.9099 2.3209,2.5292 2.6607,3.5985s2.3247,3.7442 4.4109,5.9442 4.338,5.125 5.004,6.5c1.6295,3.3644 3.3643,5.9456 5.5066,8.1935 .9797,1.0279 2.0492,3.209 2.3768,4.8469s2.388,4.7703 4.5787,6.9611c2.6567,2.6567 3.7751,4.5253 3.3583,5.6113-.4764,1.2415-.1627,1.5074 1.3207,1.1194 1.2342-.3227 2.766.3646 4.1892,1.8795 2.2747,2.4213 6.2808,3.1912 7.3769,1.4176 .7687-1.2437-2.1921-7.0293-3.5973-7.0293-1.3509,0-4.8073-4.0967-4.8513-5.75-.0664-2.4955 2.8552-1.1666 4.9746,2.2626 1.194,1.932 3.0433,3.9795 4.1095,4.5502s1.6662,1.4783 1.3332,2.0171 .7794,2.5569 2.472,4.4847 3.0774,4.3855 3.0774,5.4617 .9,2.5188 2,3.2057c2.6909,1.6805 2.5209,2.768-.4326,2.768-1.507,0-2.6608-.719-3.0323-1.8896-.6421-2.0229-5.4675-3.5064-6.8979-2.1206-1.1301,1.0947.088,3.0102 1.9142,3.0102 1.9576,0 6.4486,4.0305 6.4486,5.7873 0,.9665.5645,1.1943 1.75.7062 4.1326-1.7013 5.1498-1.6251 6.4301.4816 2.049,3.3715 7.1865,2.087 12.0985-3.025zm-13.1743-32.8645c-1.8501-1.1715-.6495-4.2321 1.3579-3.4618 .8458.3246 1.5378,1.442 1.5378,2.4832 0,2.0733-.7607,2.3304-2.8957.9786zm-40.1501-52.1713c-.6139-1.1471-.8656-2.3362-.5594-2.6425 .826-.8259 3.6052,1.7571 3.6052,3.3506 0,2.0703-1.7804,1.6564-3.0458-.7081zm-82.6435,76.3357c.4356-1.6667.4629-1.6667.5733,0 .0693,1.0446.9221,1.75 2.116,1.75 2.3817,0 2.4742-.9294.5511-5.5322-1.1166-2.6722-2.0343-3.4678-4-3.4678-1.7291,0-2.5511.5449-2.5511,1.6911 0,1.4723-.1861,1.44-1.4388-.25-1.3096-1.7666-1.5826-1.7998-3.0368-.3687-2.1533,2.1191-1,4.7056 2.8512,6.3944 4.1633,1.8256 4.4041,1.815 4.9351-.2168zm10.6243-1.6717c.9104-1.0969.887-1.8906-.1025-3.475-.9796-1.5686-1.006-2.3298-.1116-3.2242 1.2628-1.2628.6618-6.5336-.984-8.6291-.54-.6875-1.8267-1.25-2.8593-1.25-2.7023,0-2.3113-1.8846.6224-3 3.112-1.1832 3.2828-3.2066.25-2.9609-3.7901.307-4.75.0176-4.75-1.4321 0-1.2911 2.0243-2.607 4.0104-2.607 .4657,0 1.5324.6856 2.3704,1.5236 1.3648,1.3648 1.646,1.2949 2.698-.6709 .9704-1.8132.8746-2.4136-.5514-3.4564-1.349-.9864-1.5834-2.1053-1.0734-5.124 .3589-2.1241.1618-5.1527-.4379-6.73-.753-1.9805-.7694-3.189-.0532-3.9052 1.7429-1.7429 1.1887-2.6759-2.5064-4.2198-1.9489-.8143-3.7057-2.0288-3.904-2.6989s-.6978-2.1184-1.1099-3.2184-.7928-2.675-.8459-3.5c-.0532-.825-1.1613-1.6507-2.4624-1.8348-1.3317-.1884-2.5909-1.1954-2.8807-2.3038-.7769-2.9708-5.6418-2.1518-6.0911,1.0255-.1856,1.3128.2644,2.7889 1,3.2804 .8353.5579.2111.632-1.6625.1972-2.487-.5772-2.817-.4542-1.9301.7196 .5884.7787 1.6751,3.3348 2.4148,5.6802s1.9408,4.7588 2.6691,5.3633 1.1098,1.4459.8478,1.8699 1.5849,2.671 4.1043,4.9933c2.8442,2.6217 4.2261,4.5772 3.6451,5.1582s-1.4034.3722-2.1693-.5506c-.9757-1.1757-1.7402-1.2555-3.6576-.3819-2.5195,1.148-3.2502,4.1548-1.3022,5.3588 .7417.4584.9035,2.5522.4773,6.1783-.6123,5.2093-.4695,5.6986 2.8425,9.7405 1.918,2.3406 4.0215,5.4283 4.6745,6.8615s2.0191,2.8699 3.0356,3.1925 1.8482,1.3813 1.8482,2.3526c0,3.189 1.9801,4.0331 3.935,1.6776zm-7.7475-13.6408c.2407-.7219 1.0282-1.5094 1.75-1.75 .75-.25 1.125.125.875.875-.2406.7218-1.0281,1.5093-1.75,1.75-.75.25-1.125-.125-.875-.875zm-4.9375-15.5998c-1.702-.6868-1.5884-3.3377.143-3.3377 1.1623,0 2.607,1.9849 2.607,3.5818 0,.518-1.1041.42-2.75-.2441zm151.4933,28.7018c1.5425-2.47.6171-5.0395-1.8151-5.0395-2.4544,0-4.0548,3.0223-2.7937,5.2758 1.2744,2.2772 3.0975,2.1837 4.6088-.2363zm11.4402-4.7895c6.0152-6.4677 7.4487-11.7511 2.8628-10.5519-1.5497.4053-1.9309.1647-1.5036-.9487 .3148-.8203-.0575-2.1214-.8272-2.8911s-1.9365-2.4028-2.5927-3.629-1.6273-2.2293-2.1579-2.2293c-1.5511,0-1.1087,3.0075.5351,3.6383 .825.3166 1.5,1.6713 1.5,3.0105s.9,3.4008 2,4.5815c2.6399,2.8336 2.5357,5.4707-.25,6.3247-3.2911,1.0089-4.7046,2.3997-4.0835,4.0181 .7817,2.037 1.6204,1.7913 4.517-1.3231zm-190.6835.75c-.3399-.55-1.0414-1-1.559-1s-.941.45-.941,1 .7016,1 1.5591,1 1.2809-.45.9409-1zm206.0905-5.3749c.3628-1.0907.056-2.2409-.7335-2.75-1.1372-.7334-1.1386-1.016-.0086-1.745 .7416-.4784 1.1916-1.6786 1-2.6671-.4136-2.1336-2.8304-3.2181-2.889-1.2964-.0224.7334-1.3724,2.8914-3,4.7956-3.5976,4.2089-3.6465,4.826-.4785,6.0305 1.764.6707 2.3151,1.4582 1.9069,2.7253-.3902,1.2115.0908.9817 1.5026-.718 1.1421-1.375 2.3572-3.3437 2.7001-4.3749zm-110.1647.0421c-.3518-.917-1.1251-1.6672-1.7183-1.6672s-2.0355-.899-3.205-1.9977c-1.8366-1.7254-2.3781-1.8137-3.9726-.6478-1.7921,1.3104-1.7903,1.4256.062,3.9334 1.1446,1.5497 3.1085,2.7171 4.9081,2.9174 3.6409.4054 4.7742-.3273 3.9258-2.5381zm-99.8216-.3964c-1.0165-1.0165-1.8552.5139-1.0212,1.8634 .63,1.0194.8656,1.0202 1.2043.004 .2316-.6948.1492-1.5351-.1831-1.8674zm-8.6042-2.2118c0-1.1799-1.9503-2.442-2.6666-1.7257s.5458,2.6667 1.7257,2.6667c.5175,0 .9409-.4235.9409-.941zm3.8196-3.2307c-.4044-2.7481-2.8196-3.6718-2.8196-1.0783 0,2.0754.8082,3.25 2.2363,3.25 .4965,0 .759-.9773.5833-2.1717zm58.4297-1.3045c-.3058-1.5999-1.1503-2.5238-2.3068-2.5238-2.9164,0-3.2896,1.8983-.7737,3.9355 2.8408,2.3004 3.7137,1.9004 3.0805-1.4117zm6.1796-2.0375c-.1265-1.7553-3.4289-1.7421-3.4289.0137 0,1.0299.6554,1.5204 1.75,1.3096 .9625-.1854 1.718-.7809 1.6789-1.3233zm144.3115-4.7363c2.835-5.9157 2.9329-5.6742-6.7448-16.6312-6.2144-7.0358-9.3136-3.7633-4.8303,5.1004 2.3802,4.7058 8.8806,13.7808 9.8712,13.7808 .3441,0 1.1108-1.0125 1.7039-2.25zm-88.7404-1.75c0-.55-.7015-1-1.559-1s-1.2809.45-.941,1 1.0415,1 1.5591,1 .9409-.45.9409-1zm-65.1875-3.9375c.25-.75-.125-1.125-.875-.875-.7218.2406-1.5093,1.0281-1.75,1.75-.25.75.125,1.125.875.875 .7219-.2407 1.5094-1.0282 1.75-1.75zm-47.1139-.6624c.2024-.605-.3477-1.694-1.2225-2.42-1.3515-1.1216-1.9544-.9563-4.0101,1.0999l-2.4194,2.42h3.642c2.0031,0 3.8076-.495 4.01-1.0999zm132.9041-.8999c-1.0435-.7899-2.3291-1.1693-2.8567-.8432-1.1563.7146 1.1182,2.3193 3.254,2.2958 1.1536-.0126 1.0618-.3482-.3973-1.4526zm48.3973-3.0002c0-1.8254-.5346-2.5-1.9809-2.5-1.2201,0-2.1982-.8642-2.5465-2.25-.5014-1.9952-5.2344-5.3215-6.1991-4.3568-.6084.6084 4.649,7.9658 7.0275,9.8345 2.9871,2.347 3.699,2.2069 3.699-.7277zm-155.1875-5.4375c.25-.75-.125-1.125-.875-.875-.7218.2406-1.5093,1.0281-1.75,1.75-.25.75.125,1.125.875.875 .7219-.2407 1.5094-1.0282 1.75-1.75zm-57.81247-.5625c0-.825-.45-1.5-1-1.5s-1,.675-1,1.5 .45,1.5 1,1.5 1-.675 1-1.5zm23.92607.089c.8006-.9646.8393-1.616.1225-2.059-.5767-.3564-1.0486-1.5215-1.0486-2.5891s-.5625-1.9683-1.25-2.0017c-1.116-.0543-4.0187-3.3246-9.70944-10.9392-2.58891-3.4642-3.75947-1.7309-1.71975,2.5464 .92357,1.9368 1.67922,4.9472 1.67922,6.6899 0,6.1374 8.70487,12.2341 11.92607,8.3527zm208.0739-4.934c0-1.6671-3.7807-5.2077-4.6416-4.3468-.7967.7968 2.3549,5.6918 3.6647,5.6918 .5373,0 .9769-.6053.9769-1.345zm-15.1042-4.5694c2.173-1.376.6789-3.5923-3.9733-5.894s-5.9225-2.107-5.9225.8988c0,2.3969 2.8792,3.7232 4.0323,1.8574 .6215-1.0057 1.1394-.6651 2.0595,1.3543 1.3377,2.9358 1.7091,3.1099 3.804,1.7835zm21.1042-3.0386c0-4.1289-1.7181-9.047-3.1605-9.047-.4617,0-.8395-.5271-.8395-1.1713 0-1.8637-3.1407-4.8287-5.1148-4.8287-1.2469,0-2.185-1.2688-3.0345-4.1041-.6763-2.2573-1.8194-4.3304-2.5401-4.607s-1.3206-1.2423-1.3328-2.1459c-.0384-2.8404-3.3656-6.3152-5.3263-5.5628-1.1636.4465-1.53,1.231-1.0736,2.2988 .381.8915.6406,2.5887.5769,3.7714s.5504,2.4062 1.3647,2.7187c.8568.3288 1.4805,1.8451 1.4805,3.5995 0,1.6672.4344,3.0314.9652,3.0314s2.5187,1.3639 4.4174,3.031c2.4592,2.1592 3.6528,4.2191 4.15,7.1616 .4687,2.7743 1.7182,5.0625 3.8055,6.969 4.3026,3.9298 5.6619,3.6622 5.6619-1.1146zm-39.4627.8354c.4627-1.4578.0274-2.7622-1.3973-4.1869-2.0422-2.0422-2.0972-2.0442-4.1877-.1523l-2.1184,1.9171 2.6388,2.2698c3.2738,2.816 4.2103,2.8442 5.0646.1523zm-40.5373-4.5374c0-1.9071-1.399-1.6665-3.4429.592-2.3756,2.625-1.0228,4.7944 1.5422,2.4731 1.0454-.9461 1.9007-2.3254 1.9007-3.0651zm111,1.0369c0-.825-.45-1.2219-1-.8819s-1,1.293-1,2.118 .45,1.2219 1,.882 1-1.2931 1-2.1181zm-268.99997-4.3819c0-1.1111-.66667-2-1.5-2-1.52241,0-2.05126,2.1154-.83333,3.3333 1.26779,1.2678 2.33333.6589 2.33333-1.3333zm209.49997-2.622c0-1.0329-.5625-1.833-1.25-1.778-.6875.055-2.7125.1818-4.5.2818-2.7565.1542-3.0128.3668-1.688,1.4 .8591.67 1.8771,2.0569 2.2623,3.082 .6367,1.6944.9037,1.7287 2.938.378 1.2308-.8172 2.2377-2.3309 2.2377-3.3638zm55.5,2.777c0-1.969-3.6295-5.8589-4.5798-4.9085-.7839.7839 2.4031,6.7535 3.6055,6.7535 .5359,0 .9743-.8303.9743-1.845zm-72-.655c0-.8622-.9025-1.5-2.1224-1.5-1.7732,0-1.9176.2468-.8776,1.5 .6847.825 1.6398,1.5 2.1225,1.5s.8775-.675.8775-1.5zm-70-2.0591c0-.8574-.4573-1.2763-1.0163-.9309s-.7574,1.0471-.441,1.5591c.8573,1.387 1.4573,1.1284 1.4573-.6282zm150.8165-1.7681c.2155-1.8207-.1489-2.6728-1.1431-2.6728-1.7602,0-2.8344,2.4168-2.0188,4.5422 .8854,2.3074 2.8015,1.1745 3.1619-1.8694zm-88.8165-4.6728c0-1.1111-.6666-2-1.5-2-1.5224,0-2.0512,2.1154-.8333,3.3333 1.2678,1.2678 2.3333.6589 2.3333-1.3333zm13.8187-8.4019c-1.0949-2.254-2.6152-5.2725-3.3784-6.7078-1.5048-2.8302-1.06-4.0654 1.1575-3.2144 1.5915.6107 1.9318-1.2306.4022-2.1759-.55-.34-1-1.6961-1-3.0136s-1.0125-3.4634-2.25-4.7685c-5.3564-5.6492-7.8091-9.1214-7.3283-10.3743 .9596-2.5007 4.0642-1.3155 7.0202,2.68 1.618,2.187 3.5793,3.9764 4.3584,3.9764 1.0116,0 1.2372.7145.7891,2.5-.7741,3.0844.9119,3.3003 2.5064.3209 .924-1.7263.848-2.8169-.3657-5.25-.8426-1.689-2.2273-4.9319-3.0771-7.2064s-3.1423-5.8746-5.0943-8-3.5513-4.4229-3.5539-5.1053-1.5435-2.2495-3.4241-3.4823-4.0181-3.5994-4.75-5.2592c-2.0382-4.6224-4.2773-3.9013-4.6027,1.4823-.3514,5.8139 2.4136,10.5427 6.7173,11.4879 2.8768.6319 3.0722.9499 2.8228,4.594-.3221,4.705-2.5488,5.2282-6.2972,1.4798l-2.4382-2.4382 .1039,2.6882c.1663,4.3025 2.0497,8.4808 5.1443,11.4126 2.8553,2.705 3.3268,5.7411 1.0115,6.512-.6642.2212-1.8788-1.204-2.699-3.1671s-1.8374-3.5692-2.2605-3.5692c-.9494,0-5.3329,5.0148-5.3329,6.1009 0,.4345 1.2375,1.3801 2.75,2.1015 2.0392.9724 2.832,2.163 3.0672,4.6057 .224,2.3263 1.4949,4.3808 4.3261,6.993 2.2049,2.0344 4.4166,4.7194 4.9149,5.9668s2.1515,2.7352 3.6739,3.3063 3.8796,2.2254 5.2384,3.6762l2.4704,2.6377 .6843-3.346c.4907-2.3992.121-4.5056-1.3065-7.444zm-10.8434-14.1632c-1.2034-3.1653-1.2071-3.4349-.0467-3.4349 1.4263,0 4.0714,2.9699 4.0714,4.5714 0,2.4222-2.993,1.577-4.0247-1.1365zm80.8167,22.3949c.1606-.8275-.6177-2.5902-1.7296-3.9172-1.6739-1.9976-2.1847-2.1647-2.969-.9718-.6329.9626-.4541,2.3946.5383,4.3138 1.5262,2.9514 3.6424,3.2439 4.1603.5752zm-25.9724-2.0015c-.4044-2.7481-2.8196-3.6718-2.8196-1.0783 0,2.0754.8082,3.25 2.2363,3.25 .4965,0 .759-.9773.5833-2.1717zm-244.81957.1717c0-.55-.45-1-1-1s-1,.45-1,1 .45,1 1,1 1-.45 1-1zm117.99627-.75c-.0021-.4125-.9021-2.2234-2-4.0242s-1.9976-4.2758-1.9991-5.5c-.0018-1.3582-1.1701-3.0054-2.9972-4.2258-3.6802-2.4583-3.8012-3.5-.4063-3.5 1.7526,0 2.7632.6485 3.1166,2 .7138,2.7296 2.1445,2.5122 3.2897-.5 .5228-1.375 1.4117-2.5 1.9753-2.5s1.0247-.675 1.0247-1.5-.4541-1.5-1.0092-1.5-2.3668-2.2064-4.0261-4.9031-3.6801-5.1575-4.4908-5.4686-1.4739-1.1996-1.4739-1.9745-.7218-2.0081-1.6041-2.7403-1.9962-2.3623-2.4753-3.6224c-1.209-3.18-4.9206-3.1145-4.9206.0867 0,2.7606 2.6808,9.6192 3.7635,9.6285 .8392.0072 4.2365,5.6805 4.2365,7.0747 0,.5054-1.1731.919-2.607.919-1.9476,0-2.456-.3934-2.0101-1.5553 .4226-1.1013-.4219-1.9809-2.893-3.0134-1.9194-.802-3.4899-1.9021-3.4899-2.4448s-.4585-.9865-1.019-.9865c-1.1342,0-.2593,4.9146 1.1481,6.45 .479.5225.8709,1.7082.8709,2.635s1.125,2.4221 2.5,3.323 2.5,2.5023 2.5,3.5585c0,1.0791 1.3324,2.7074 3.0412,3.7169 1.6726.988 3.3083,2.9259 3.6349,4.3065 .8826,3.7312 8.3355,9.3388 8.3202,6.2601zm14.9371-.8909c.2383-.2159-.0801-.9059-.7077-1.5334-.8546-.8546-1.528-.8197-2.6833.1391-2.2717,1.8853-1.8756,3.2724.7076,2.4783 1.2375-.3804 2.445-.8682 2.6834-1.084zm-23.9334-.8591c0-.825-.675-1.5-1.5-1.5-1.5615,0-1.9839,1.1827-.8333,2.3333s2.3333.7282 2.3333-.8333zm101.7505-.75c-.63-1.8922-3.7505-2.1612-3.7505-.3234 0,.9277.855,1.5734 2.0834,1.5734 1.2219,0 1.9112-.5169 1.6671-1.25zm-105.9309-4c-.1758-1.2375-1.3508-2.7-2.6113-3.25s-2.5467-2.0125-2.8584-3.25c-.788-3.1289-2.1844-2.8352-1.5789.3321 .2715,1.4202 1.1091,2.8183 1.8613,3.107s1.3677,1.0617 1.3677,1.7179c0,1.3884 2.0061,3.593 3.2696,3.593 .4782,0 .7257-1.0125.55-2.25zm21.5906-2.6047c.2905-.47-.5829-1.8985-1.941-3.1743l-2.4692-2.3197v3.1744c0,2.4754.4274,3.1743 1.941,3.1743 1.0676,0 2.1787-.3846 2.4692-.8547zm147.7686-4.1702c2.4996-2.4996 2.809-3.285 1.7819-4.5226-.6837-.8237-1.967-1.2786-2.8518-1.0108-1.1447.3465-2.2634-.8732-3.8776-4.2274-3.7729-7.8397-7.3066-13.2143-8.6884-13.2143-1.6401,0-.0654,5.0065 2.99,9.5061 2.9584,4.3568 5.8622,10.7843 5.5781,12.3468-.2941,1.6177.5809,4.1471 1.4346,4.1471 .3345,0 1.9695-1.3612 3.6332-3.0249zm11.4372-3.4167c.3042-.7929.4026-2.2233.2186-3.1786-.317-1.646-.4263-1.6453-2.0846.013-.9625.9625-1.75,2.3929-1.75,3.1786 0,1.864 2.8997,1.8536 3.616-.013zm-190.616-.9994c0-.7926-.45-1.7191-1-2.059s-1,.3085-1,1.4409 .45,2.0591 1,2.0591 1-.6485 1-1.441zm60.5-.559c0-.7334-.5625-1.5209-1.25-1.75-.7436-.2479-1.25.4611-1.25,1.75s.5064,1.9978 1.25,1.75c.6875-.2292 1.25-1.0167 1.25-1.75zm57.1078-3.4268c-.8097-3.226-4.9988-3.5795-6.6157-.5584-.877,1.6387-.7435,2.1189.7148,2.5722 .9862.3065 2.4681.9282 3.2931,1.3815 2.1466,1.1796 3.3596-.3998 2.6078-3.3953zm-209.60777-.9066c0-1.8808-.96233-2.6183-2.59777-1.9907-2.12706.8162-1.67607,3.3241.59777,3.3241 1.1,0 2-.6 2-1.3334zm279.63457-.1567c.8845-2.305-2.866-10.5991-4.6346-10.2491-1.9814.3921-4.1199-2.4092-9.0871-11.9036-4.3376-8.2913-6.1536-10.3572-9.104-10.3572-3.63,0-1.5841,7.8361 3.6994,14.1693 1.2248,1.4682 3.074,4.729 4.1093,7.2463 1.8937,4.6042 4.582,5.9848 6.9815,3.5853 .6655-.6655.8622.174.589,2.5137-.2255,1.9321.145,4.1817.8234,4.9991 1.5953,1.9223 5.8849,1.9198 6.6231-.0038zm-190.6346-.5099c0-.55-.7015-1-1.559-1s-1.2809.45-.941,1 1.0415,1 1.5591,1 .9409-.45.9409-1zm33-1c0-.55-.675-1-1.5-1s-1.5.45-1.5,1 .675,1 1.5,1 1.5-.45 1.5-1zm115-2c0-.55-.45-1-1-1s-1,.45-1,1 .45,1 1,1 1-.45 1-1zm-15.0354-.75c-.0195-.4125-.6785-1.875-1.4646-3.25l-1.4291-2.5-.0354,2.5833c-.0195,1.4208.2645,2.8833.6312,3.25 .8986.8986 2.3418.8463 2.2979-.0833zm17.0354-5.703c0-1.4061-2.8138-6.2661-4.75-8.204-1.2375-1.2387-2.25-2.7226-2.25-3.2976 0-.575-.6239-1.0454-1.3865-1.0454-1.7087,0-2.774,6.0092-1.3739,7.75 .5529.6875 1.8344,1.25 2.8477,1.25s2.324.9 2.9127,2c.9131,1.706 4,2.8999 4,1.547zm-121-3.6069c0-1.0047-.827-2.4147-1.8379-3.1334-2.993-2.128-3.4099-8.2431-.9124-13.3837 1.1819-2.4327 2.7076-4.423 3.3906-4.423s1.4985-.4155 1.8123-.9233c.6403-1.036-3.2182-8.0767-4.4263-8.0767-.427,0-1.0461-1.3492-1.3759-2.9983-.5522-2.7611-10.9209-14.0017-12.9157-14.0017-.425,0-.5027,1.0759-.1727,2.3909 .7239,2.8843-.2979,3.663-3.312,2.5239-1.5171-.5734-2.25-1.6752-2.25-3.3826 0-1.3927-.45-2.5322-1-2.5322s-1-.675-1-1.5c0-1.8234 2.1136-1.9579 3.9279-.25 1.0971,1.0328 1.2119.4681.6607-3.25-.6601-4.4523-3.463-7.9287-6.4324-7.9778-1.0374-.0172-1.1883,1.1085-.6618,4.9366 .6496,4.7235.5611,4.9891-1.865,5.598-2.4625.6181-2.4931.7215-.9232,3.1175 1.3792,2.1048 2.1025,7.0663 2.453,16.8257 .0395,1.1-.2468,2.9709-.6361,4.1575-.485,1.4779-.1276,2.738 1.1345,4 1.0133,1.0134 1.7026,2.8245 1.5318,4.0248-.1982,1.3922.4302,2.5789 1.7356,3.2775 3.0314,1.6223 11.4484,10.8747 12.4084,13.6398 .4767,1.3733 1.6281,2.4004 2.691,2.4004 1.0217,0 2.0984.3896 2.3928.8659 .9844,1.5929 5.5828.0067 5.5828-1.9258zm-10.3166-29.5901c-1.0653-1.0653-.8025-4.35.348-4.35 1.4785,0 2.4095,2.9591 1.2848,4.0838-.5222.5222-1.257.642-1.6328.2662zm24.0898,28.5505c.2034-1.0427-.942-1.4005-4.4829-1.4005-3.8588,0-4.825.3547-5.1216,1.8801-.201,1.0341.1935,2.2257.8767,2.6479 1.6726,1.0337 8.3853-1.3718 8.7278-3.1275zm17.2268-1.4319c0-2.4115-2.3918-4.4101-3.7055-3.0964-.8534.8534 1.4237,5.6278 2.6841,5.6278 .5618,0 1.0214-1.1392 1.0214-2.5314zm-64,.5314c0-.55-.45-1-1-1s-1,.45-1,1 .45,1 1,1 1-.45 1-1zm-55.301-4.043c-.3509-1.3421.1236-2.4538 1.3834-3.2406 1.0547-.6586 1.9176-1.8993 1.9176-2.757s.5008-2.0602 1.1129-2.6723c2.575-2.575-1.433-4.2566-5.2616-2.2076-1.9155,1.0252-1.9305,1.1755-.2962,2.9813 1.2018,1.328 1.4193,2.2844.7208,3.1704-.55.6978-1.2957,2.5063-1.657,4.0188-.5129,2.1469-.2983,2.75.9787,2.75 1.1548,0 1.4786-.6006 1.1014-2.043zm42.301-1.9219c0-1.6765-2.5919-4.0351-4.4342-4.0351-1.144,0-.5187,2.3945 1.0892,4.1712 2.1448,2.37 3.345,2.3211 3.345-.1361zm25-.5599c0-.8386-1.125-1.9525-2.5-2.4752s-2.5-1.6367-2.5-2.4753c0-1.923-1.6061-1.9935-2.3318-.1023-.3002.7823-1.5506,1.5698-2.7787,1.75-3.0794.4518-3.6824,2.8235-.7228,2.8429 1.2833.0084 3.0083.4515 3.8333.9847 2.4187,1.5631 7,1.2196 7-.5248zm127-.4162c0-.5176-.45-1.2191-1-1.559s-1,.0835-1,.9409 .45,1.5591 1,1.5591 1-.4235 1-.941zm-145-2.559c0-2.793-1.4588-3.3527-2.393-.9182-.9602,2.5023-.7209,3.4182.893,3.4182 .9334,0 1.5-.9445 1.5-2.5zm62.9852-2.5278c-.9705-1.8133-1.3876-1.9773-2.1794-.8573-.7176,1.015-.8405.757-.4598-.9656 .6658-3.0131-1.1203-6.9429-3.4988-7.6978-1.0171-.3229-2.3057-1.4398-2.8635-2.482-.6101-1.1401-1.6271-1.6598-2.5528-1.3046-2.2591.8669-1.4582,6.5247 1.106,7.8123 1.1203.5625 3.7781,2.955 5.9061,5.3167 4.0065,4.4464 6.8869,4.5595 4.5422.1783zm-70.309-4.7413c-.6804-2.3041-2.0796-4.8054-3.1094-5.5584-2.1373-1.5629-1.3046-3.8929 1.0662-2.9831 1.798.6899 3.4308-1.3597 2.6675-3.3488-.6962-1.8142-3.9474-1.7031-4.6621.1594-.8516,2.2192-2.0083,1.8434-4.4372-1.4418-1.9694-2.6637-2.0276-3.0889-.6166-4.5 2.2655-2.2654 3.891-1.9343 7.0774,1.4418 1.5574,1.65 3.1705,3 3.5848,3 1.8921,0 .4588-5.1037-2.2468-8-1.65-1.7664-3-3.8124-3-4.5468s-.4777-1.6305-1.0616-1.9914-1.4728-1.7374-1.9753-3.059-1.5997-2.4028-2.4383-2.4028c-.8581,0-1.5248-.8745-1.5248-2 0-1.1.45-2 1-2s1-.675 1-1.5-.45-1.5-1-1.5-1,.45-1,1-1.125,1-2.5,1c-1.8412,0-2.5-.5321-2.5-2.0191 0-1.6543.4517-1.9057 2.5-1.3916 2.0544.5156 2.5.2641 2.5-1.4114 0-1.353.7569-2.1463 2.25-2.3584 3.0422-.432 3.6464-4.4003.8073-5.3014-1.1327-.3595-2.5283-1.5298-3.1015-2.6007-1.4379-2.6868 1.4846-3.7438 4.9511-1.7907 2.0502,1.1553 2.5195,2.08 2.2413,4.4172-.1935,1.6258-.7718,3.7436-1.2852,4.7061-.742,1.3911-.5281,1.75 1.0428,1.75 1.0869,0 2.2543-.45 2.5942-1 1.2252-1.9825 4.0541-.9322 6.8174,2.531 3.0314,3.7992 3.1776,6.128.4912,7.8197-1.2836.8084-2.1466.6534-3.5788-.6428-2.3247-2.1039-9.2298-2.3467-9.2298-.3246 0,.7609.9,1.6188 2,1.9064 1.3194.345 2,1.364 2,2.9942 0,3.2199 1.9845,4.7702 6.9608,5.4376 4.1032.5504 5.8024-1.0272 2.1384-1.9854-1.0455-.2733-2.3941-1.4186-2.9969-2.545-1.0269-1.9189-.7514-2.0911 4.3709-2.7311 3.0069-.3756 5.9617-1.2791 6.5663-2.0076 1.6736-2.0165-.4455-5.0836-4.0039-5.7953-1.8915-.3783-3.0356-1.2217-3.0356-2.2378 0-1.513-2.4596-5.0919-6.817-9.9193-1.8286-2.0259-4.183-6.8225-4.183-8.5221 0-.5104 1.35-.6579 3-.3279s2.9998.4312 2.9995.225-.9092-2.766-2.0199-5.6883-1.7589-5.7347-1.4405-6.25 2.3524-.9367 4.52-.9367c4.89,0 5.3587-2.3101.7917-3.9022-4.1653-1.4521-4.5383-1.4103-6.6981.7495-1.7312,1.7312-2.061,1.7466-5.25.2446-4.5313-2.1343-4.9447-5.1631-.9447-6.922 2.6103-1.1477 3.2414-1.1134 4.6049.25 1.6588,1.6589 4.4371,2.1473 4.4371.7801 0-.44-.5225-1.3225-1.1611-1.9611s-1.2786-2.2635-1.4222-3.6109c-.2033-1.9062.4169-2.7307 2.7951-3.7158 2.6989-1.1179 3.2162-1.0475 4.4223.602 .7513,1.0274 1.3659,2.6932 1.3659,3.7016 0,2.0466 4.1359,4.053 6.4914,3.1491 2.1817-.8372 1.9241-1.382-2.984-6.3108-3.3672-3.3813-4.1681-4.758-3.3448-5.75 1.545-1.8617 2.5225-1.6166 3.1519.7904 .4597,1.758 1.041,1.9863 3.6166,1.4206 1.9462-.4274 3.0689-.2791 3.0689.4054 0,.5937-.3931,1.0795-.8737,1.0795s-.5756,1.4625-.2112,3.25c.4388,2.1528 1.7397,3.9252 3.8533,5.25 3.2742,2.0522 3.8989,4.6181 1.2316,5.0589-.825.1363-2.2875.5644-3.25.9514-1.0684.4296-1.75.2495-1.75-.4624 0-.6413-.45-.8879-1-.5479-1.777,1.0982-1.0644,3.1496 1.5,4.318 1.443.6575 2.5,1.9773 2.5,3.1216 0,1.0903.839,2.7875 1.8644,3.7714s2.3888,2.7968 3.0297,4.0286 2.5019,2.9309 4.1356,3.7757c2.7545,1.4244 2.9728,1.407 3.0036-.2397 .0442-2.3572 3.0427-5.8476 5.7663-6.712 1.7689-.5615 2.0654-.3754 1.5484.9719-.8791,2.291.8297,3.0957 5.6064,2.6402 3.0875-.2944 4.0456-.8124 4.0456-2.1872 0-1.3333.5416-1.6597 2.0847-1.2562 1.1465.2999 2.3197,1.1577 2.607,1.9064s1.101,1.3613 1.8083,1.3613c2.6827,0 3.4562-6.9616 1-9-.825-.6847-1.5-1.8533-1.5-2.5968s-1.4625-2.1054-3.25-3.0265-3.8225-2.4854-4.5222-3.4765-2.0469-2.5765-2.9937-3.5233-2.1742-2.4795-2.7277-3.4062c-3.4525-5.78-6.7461-10.0287-8.5034-10.9691-1.1144-.5965-2.8085-2.7533-3.7646-4.793-1.055-2.2507-3.0797-4.3782-5.1505-5.4119-1.8766-.9368-3.7714-2.2846-4.2105-2.9951-.6121-.9905-1.1501-.8264-2.3061.7032-2.0874,2.7623-1.9626,3.4773 1.1787,6.7557 3.4851,3.6373 4.0408,10.1302.5699,6.6594-.7462-.7463-2.1849-.7751-4.6548-.0931-2.7937.7714-3.8343.6741-4.7633-.4451-1.0285-1.2394-1.4152-1.2271-2.8722.0915-1.5212,1.3767-1.8935,1.3005-3.8567-.7892-3.7244-3.9644-2.7551-5.6163 2.1918-3.7355 3.3257,1.2644 9.6353.1968 9.6353-1.6304 0-1.7606-6.6366-4.6464-9.165-3.9852-2.2791.596-3.7996-1.9472-4.2439-7.0983-.3971-4.6031.8557-7.2346 3.4441-7.2346 2.3593,0 2.5761-2.2478.3917-4.0607-1.702-1.4126-5.4269-8.2073-5.4269-9.8995 0-2.0457 2.7821-.9815 6.4314,2.4602 4.0982,3.8651 6.0359,4.2921 8.668,1.91 1.2341-1.1168 2.2561-1.3105 3.4347-.6509 1.3861.7757.9437,1.2327-2.5442,2.6283l-4.222,1.6893 5.116,4.9052c3.4768,3.3335 5.1161,5.7047 5.1161,7.4 0,2.6603 3.7099,7.1247 8.2947,9.9814 1.537.9577 3.2164,2.8508 3.732,4.2069s2.0092,2.8731 3.319,3.3711 2.6481,1.6001 2.9739,2.4492c.4828,1.2581 1.111,1.0251 3.396-1.26 1.542-1.542 3.4743-3.0739 4.2941-3.4043 1.2536-.5052 1.1932-.8407-.3806-2.1121-1.4643-1.183-1.7283-2.2715-1.2148-5.0088 .5416-2.8872.3011-3.6873-1.3791-4.5865-1.2125-.6489-2.0352-2.0983-2.0352-3.5854 0-1.3729-.675-2.7552-1.5-3.0718s-1.5-1.2136-1.5-1.9934-1.125-1.8455-2.5-2.3682-2.5-1.4787-2.5-2.1243-1.575-2.7033-3.5-4.5729c-6.4265-6.2413-3.1353-6.2864 3.8598-.0528 3.3988,3.0287 4.1936,3.2817 5.1992,1.6546 .8877-1.4363-1.5284-5.9046-3.1928-5.9046-1.8458,0-3.8039-3.9623-2.5686-5.1976 .6438-.6438 1.5996.0613 2.7706,2.0436 2.0648,3.4955 5.5457,4.7243 8.3759,2.9568 1.9319-1.2065 1.9229-1.2885-.4879-4.4493-1.3923-1.8253-2.4562-4.5682-2.4562-6.3323 0-3.0114-1.6664-5.2195-6.808-9.0212-1.1158-.825-2.3195-2.5086-2.6749-3.7413-.6133-2.127-.401-2.2258 4.1683-1.9388 2.6481.1662 5.7998.8385 7.0039,1.4939 1.4394.7834 2.4031.8457 2.8134.1818 .3433-.5554-.1919-1.3113-1.1893-1.6798-2.3606-.8721-3.2792-2.2891-3.2981-5.0873-.0097-1.4387-.9247-2.6858-2.496-3.4017-2.4508-1.1167-4.273-4.4064-3.0939-5.5855 .3344-.3344 1.1405-.0755 1.7913.5753 1.9627,1.9627 3.707,1.3425 4.4062-1.5666 1.5086-6.2768 4.1799-9.9904 7.6553-10.6424 4.0292-.7559 9.7218,1.0187 9.7218,3.0307 0,.7934.9522,2.7305 2.1159,4.3045 3.1956,4.3223 1.8468,5.5299-2.1222,1.9001-2.7933-2.5546-4.4361-3.2288-8.1943-3.3628l-4.7006-.1677-1.0533,4.9113c-.8216,3.8307-.7656,5.1989.2542,6.2188 1.8913,1.8913 6.7827,1.6155 9.8458-.5552 2.1825-1.5465 2.7408-1.626 3.1905-.4541 .2999.7813-.0541,1.9179-.7866,2.5258s-1.5386,2.3283-1.7913,3.8231-.6392,3.3929-.8588,4.2179c-.2554.9594.2042,1.4003 1.2753,1.2234 2.1921-.3619 3.2954,1.5054 1.89,3.1987-1.4549,1.7531.3133,6.5779 2.4107,6.5779 1.6668,0 2.1655,3.9199.5247,4.125-.55.0687-1.45.2375-2,.375s-1.45.3062-2,.375c-3.2422.4052 1.1774,9.0921 6.7274,13.2229 1.7751,1.3211 3.0297,2.9569 2.788,3.6351-.3787,1.0624 6.2346,9.7663 8.5873,11.302 1.1718.7649 4.1152,8.0804 3.499,8.6966-1.0591,1.0591-3.6017-.7377-3.6017-2.5453 0-1.032-.8885-2.6805-1.9744-3.6632s-2.245-2.6393-2.5757-3.681c-.4241-1.3363-1.3763-1.8128-3.2332-1.6181-2.2496.2359-2.6671-.1404-2.8733-2.5897-.1327-1.5761-.4092-3.0335-.6143-3.2386s-2.8156.4138-5.801,1.3754c-4.7656,1.535-5.387,2.0386-5.0919,4.1264 .1849,1.3078-.2361,2.7316-.9357,3.164-1.0262.6342-1.021,1.0883.0271,2.3512 1.6595,1.9995 3.3415,1.0104 2.5457-1.4969-.391-1.2319-.1378-1.9045.7093-1.884 4.0141.0969 7.7769,7.4589 5.5967,10.95-.8906,1.4261-.775,2.1653.5452,3.4855 .9215.9215 1.6755,2.3661 1.6755,3.2102s1.29,3.1744 2.8665,5.1786 3.1819,4.6564 3.5674,5.8939 1.3597,2.25 2.1649,2.25 1.7648.7875 2.1324,1.75 2.0409,3.1335 3.7186,4.8245 4.1752,4.712 5.5502,6.7135 4.4125,5.0891 6.75,6.8614 4.2523,3.7011 4.255,4.2864 1.0971,2.4142 2.4319,4.0642c2.3825,2.945 2.4542,2.9633 3.9148,1 1.3398-1.801 1.2968-2.178-.4319-3.789-1.0559-.9839-1.9198-2.2214-1.9198-2.75s-.675-.961-1.5-.961c-1.0023,0-1.5-1.0024-1.5-3.0215 0-2.2524-.6362-3.3113-2.5-4.1605-1.375-.6265-2.5-1.5168-2.5-1.9786s-.8076-.8394-1.7947-.8394c-1.8003,0-8.2053-10.5712-8.2053-13.5426 0-.7733-1.35-2.1042-3-2.9574-3.6443-1.8846-4.0691-4.4271-.6298-3.7696 1.9513.373 2.5719-.1254 3.5113-2.8202 .6276-1.8003.848-4.8354.4898-6.7448-.6462-3.4446-.6273-3.4666 2.45-2.8512 1.7056.3411 3.3644.1943 3.6862-.3263 .7794-1.2611-1.2376-4.9497-4.252-7.7759-1.6434-1.5407-2.2098-2.847-1.7344-4 1.494-3.6236 1.7853-5.5194.7498-4.8794-.5744.3549-1.6047-.0299-2.2896-.8553-1.0533-1.2691-.8785-1.4602 1.1334-1.2389 1.8675.2053 2.4539-.2758 2.7279-2.2384 .192-1.375.8577-3.1188 1.4795-3.8751s.9976-2.6405.8354-4.1872 .1649-3.6715.7269-4.7218c1.1964-2.2353-.2526-4.2159-3.0844-4.2159-1.9871,0-2.4644-1.6119-.6558-2.2148 .856-.2853.8493-1.275-.0264-3.9285-1.1465-3.474-3.6221-5.4444-7.6178-6.0635-1.5184-.2353-2.0747-1.2109-2.3103-4.0516-.1707-2.0579-.0286-3.7416.3157-3.7416 1.5697,0 5.1956,2.4261 7.2397,4.8442l2.245,2.6558 .005-2.5278c.0027-1.3903-.8951-3.2984-1.9951-4.2402s-2.0061-2.9544-2.0136-4.4722-.2777-3.7445-.6005-4.9479c-.5646-2.1056-.3766-2.1665 4.9863-1.613 5.3904.5564 5.6077.4842 6.6284-2.2005 .5805-1.5267.9303-2.8408.7774-2.9202l-3.1581-1.6c-3.9722-2.0074-5.3987-5.3423-3.218-7.523 1.2896-1.2895 1.4051-1.9829.5102-3.0612-.9085-1.0946-.8085-1.394.4655-1.394 .9066,0 1.6224-.8089 1.6224-1.8334 0-2.7912 1.1434-3.34683 3.1501-1.5308 1.4342,1.2979 2.1144,1.3896 3.2592.4395 1.2362-1.026.8626-2.3399-2.5677-9.03029-3.302-6.44006-4.5168-7.93009-6.8452-8.39577-2.12-.424-2.7118-1.0216-2.3566-2.37982 .2877-1.09991-.532-2.75903-2.0827-4.21587-1.4064-1.32121-2.5571-3.44877-2.5571-4.72789s-.527-2.32569-1.1712-2.32569-1.933-.68938-2.8641-1.53196c-1.5377-1.39164-1.8447-1.30005-3.3518,1-1.4409,2.19915-2.3789,2.53196-7.1359,2.53196-4.8103,0-5.477-.24345-5.477-2 0-1.33333-.6666-2-2-2-2.3724,0-2.5841,1.27032-.5,3 1.6684,1.38462 1.8735,2.86329.662,4.77218-1.2964,2.04266-9.4639-2.13867-13.5873-6.95603-2.7222-3.18018-3.2896-4.45475-2.4393-5.47927 2.2346-2.69253-.9803-7.37837-6.8403-9.96994-2.9437-1.30181-5.8051-2.36694-6.3588-2.36694-2.1145,0 1.3219,4.20993 4.5309,5.55071 3.4591,1.44532 4.4522,4.30442 3.7164,10.69929-.3582,3.11331-2.1836,3.78767-2.1836.8067 0-2.43948-3.3661-4.84937-7.9655-5.70269-1.944-.36066-4.5305-1.30381-5.7479-2.0959-2.0257-1.31807-2.4169-1.22052-4.6146,1.15087-2.4754,2.67096-5.0882,3.34451-6.172,1.59102-.3399-.55-1.3449-1-2.2333-1-1.326,0-1.2259.41446.559,2.31445 3.5268,3.75405 2.6129,9.29742-.9945,6.03274-1.2243-1.10799-1.8312-1.24808-1.8312-.42272 0,.85136-.9309,1.02996-3,.57553-2.5828-.56728-3-.36972-3,1.42054 0,1.1437-.6199,2.07946-1.3775,2.07946s-1.9494.68906-2.6484,1.53126c-1.0422,1.25576-.9824,1.75052.3325,2.75 1.69,1.28459 3.6934,5.81456 3.6934,8.35123 0,2.06406-3.9773.81552-6.1484-1.93011-1.6414-2.07571-1.6571-2.07041-3.6685,1.23706-2.2551,3.70813-1.9896,5.6164.8861,6.3684 2.6299.68773 2.6133,4.69216-.0195,4.69216-1.0726,0-2.4144-.7875-2.9817-1.75-.8995-1.52629-1.1596-1.55825-2.0344-.25-1.4467,2.16368-1.2599,4.56733.4664,6.00003 1.7245,1.4312 1.9748,3 .4786,3-.5618,0-1.5276-1.1109-2.1462-2.4687-1.1581-2.5417-2.8324-2.5253-2.8324.0277 0,.7925-.8906,2.3316-1.9791,3.4201-2.0593,2.0593-2.0283,4.5827.1442,11.7552 .5388,1.7788.6862,4.1589.3275,5.289-.5654,1.7815-.327,1.9732 1.7921,1.4414 3.343-.8391 4.3261,1.9433 1.8148,5.136-2.2075,2.8064-1.7338,6.0632 1.0085,6.9335 2.496.7922 2.4256,3.5135-.108,4.176-2.3852.6238-2.5339,1.6018-.5,3.2898 2.3263,1.9306 1.809,4-1,4-3.0189,0-3.1263,1.3486-.5151,6.4703 1.0917,2.1413 1.8224,4.0557 1.6238,4.2543s-1.9963-.4187-3.9949-1.3718c-4.4716-2.1324-6.6731-.8316-4.8689,2.877 1.5047,3.0928 2.4408,7.6364 2.35,11.4057-.0416,1.7245.6006,3.6967 1.4271,4.3827 1.1359.9427 1.228,1.5781.3773,2.6032-1.3809,1.6638.9864,8.191 4.7852,13.1942 1.3846,1.8237 2.314,3.5192 2.0653,3.7679-.6258.6258-5.8883-2.1897-6.7753-3.6248-.4656-.7534-1.8558-.9241-3.889-.4775-2.6673.5858-3.0615,1.0346-2.51,2.8569 .3599,1.189 1.5027,3.0909 2.5395,4.2263 2.0775,2.2753 2.4766,4.4356.8193,4.4356-2.2395,0-4.7283-2.0431-5.3094-4.3587-.4062-1.6182-1.5131-2.583-3.3651-2.9329-1.5179-.2868-3.7723-.841-5.0098-1.2316-1.8288-.5772-2.25-.3292-2.25,1.3247 0,3.0682 1.054,5.1985 2.5718,5.1985 1.3697,0 3.4282,2.9629 3.4282,4.9342 0,2.104-3.1666,1.0067-5.978-2.0713-1.7391-1.9041-3.455-2.9107-4.366-2.5612-2.0155.7735-.9952,4.4558 1.4497,5.2318 1.0393.3299 2.1713,1.7216 2.5154,3.0928 .4577,1.8235 1.0625,2.3069 2.2523,1.8 .8947-.3812 2.8641-.6259 4.3766-.5438s2.75-.3079 2.75-.8667c0-1.6657 3.8805-1.1516 5.5409.7342 .8474.9625 3.5474,3.999 6,6.7478s4.4591,5.3567 4.4591,5.7953-1.6001.4973-3.5559.1304c-6.3737-1.1957-10.2797,5.0955-6.314,10.1695 .543.6947-.0539,1.5069-1.6379,2.2286-1.3707.6245-2.4922,1.563-2.4922,2.0855 0,1.5733 2.976,4.0487 5.6846,4.7285 2.3477.5893 2.5063.9786 2.0495,5.031-.4454,3.9515-.3063,4.3324 1.3855,3.7954 2.1329-.6769 2.7437,2.0587.6304,2.824-.9819.3556-.9565.9474.1188,2.7599 1.1991,2.0212 1.1525,2.4654-.3759,3.5829-1.6241,1.1876-1.5289,1.6013 1.3794,5.992 1.7182,2.594 2.9423,4.8979 2.7203,5.1199s-2.1336-.6881-4.2481-2.0225c-4.6191-2.9149-7.9665-4.0699-9.3382-3.2221-1.6269,1.0055.6264,4.1949 3.4674,4.9079 1.4375.3608 2.5263,1.3523 2.5263,2.3006 0,2.3303 3.9245,6.2616 5.6065,5.6161 1.0346-.397 1.3935.406 1.3935,3.1177 0,3.854 3.5069,8.5616 6.3779,8.5616 2.0295,0 7.6221,4.8575 7.6221,6.6202 0,.7934.7095,1.7148 1.5766,2.0475s2.0048,1.7311 2.528,3.1073c1.5091,3.9692 1.935,2.0734.5716-2.5441zm-12.0095-20.8976c-1.2678-1.2678-.6589-2.3333 1.3333-2.3333 1.1111,0 2,.6666 2,1.5 0,1.5224-2.1154,2.0512-3.3333.8333zm-4.6667-3.8924c0-.8574.45-1.2809 1-.9409s1,1.0414 1,1.559-.45.941-1,.941-1-.7016-1-1.5591zm1-8c0-.8574.45-1.2809 1-.9409s1,1.0414 1,1.559-.45.941-1,.941-1-.7016-1-1.5591zm7.3617-31.9409c-.3166-.825-1.158-1.5-1.8699-1.5-1.3292,0-5.9265-6.8986-5.1289-7.6962 .6063-.6063 9.6371,8.5046 9.6371,9.7225 0,1.5343-2.0008,1.1351-2.6383-.5263zm36.1383-9.5c-.3399-.55.0836-1 .941-1s1.559.45 1.559,1-.4234,1-.9409,1-1.2191-.45-1.5591-1zm13.7292-2.1875c.6181-1.8543 2.7708-2.1618 2.7708-.3959 0,.8709-.7125,1.5834-1.5833,1.5834s-1.4052-.5344-1.1875-1.1875zm-52.6232-20.9181c-2.1417-2.1668-3.7167-4.042-3.5-4.1671 3.9891-2.3018 7.9297-3.8233 8.6882-3.3545 1.7741,1.0964 2.1353,4.717.532,5.3322-1.0739.4122-1.3513,1.4191-.9474,3.4389 .745,3.725-.0657,3.5127-4.7728-1.2495zm78.394-3.3944c0-2.8716.8222-3.107 3.5589-1.019 1.6802,1.2818 1.7395,1.6159.4411,2.4846-2.5298,1.6928-4,1.1541-4-1.4656zm7-26.941c0-.8575.45-1.559 1-1.559s1,.4234 1,.9409-.45,1.2191-1,1.5591-1-.0836-1-.941zm-7.7708-8.7465c.6181-1.8543 2.7708-2.1618 2.7708-.3959 0,.8709-.7125,1.5834-1.5833,1.5834s-1.4052-.5344-1.1875-1.1875zm-76.0562-7.4722c-2.3029-2.5628-4.0127-4.8339-3.7997-5.0469 .6407-.6408 9.3695,5.5938 9.9501,7.107 .5369,1.3989-.0682,2.5996-1.31,2.5996-.3593,0-2.5375-2.0969-4.8404-4.6597zm28.9617,1.5739c-1.8642-2.001-2.0495-2.0161-4.5602-.3711l-2.6171,1.7148 .2713-3.2702c.306-3.6883-1.7074-5.2054-2.7112-2.0428-.9007,2.838-6.5175,2.9539-6.5175.1345 0-1.3208.9368-2.1263 3-2.5794 3.0027-.6595 4.196-3.6429 2-5-.55-.34-.9857-1.154-.9682-1.8091s.6299-.403 1.3635.5635c.7324.9649 2.7431,2.2465 4.4682,2.8478 1.7796.6204 3.1503,1.8082 3.1683,2.7456 .0495,2.5705 2.469,5.1522 4.8285,5.1522 1.4731,0 2.1397.6231 2.1397,2 0,2.574-1.4166,2.5425-3.8653-.0858zm7.8653-3.554c0-.9019-.7875-2.2375-1.75-2.9682-1.0496-.7968-1.2543-1.3412-.5114-1.3602 1.703-.0438 5.2614,3.1285 5.2614,4.6904 0,.7028-.675,1.2778-1.5,1.2778s-1.5-.7379-1.5-1.6398zm-29.6517-16.9514c-.9338-1.4252-2.7441-2.9891-4.023-3.4753-1.377-.5235-2.3253-1.7098-2.3253-2.9088 0-2.2825 1.0307-2.5941 2.7834-.8414 2.1102,2.1103 2.7215-.1992 2.4629-9.3062-.2068-7.2873.0308-9.0462 1.2873-9.5284 2.9912-1.1478 5.7734-10.7464 3.3492-11.55447-1.7281-.57605-1.6967-8.25188.0339-8.27518 2.3679-.03189 2.4544-2.60929.1081-3.22286-1.6457-.43035-2.0459-1.09377-1.619-2.68393 .3118-1.16176.5731-3.79979.5806-5.86229 .0097-2.6606.4494-3.75 1.5136-3.75 .825,0 1.5.82906 1.5,1.84235 0,1.5291.7227,1.81168 4.25,1.66198 7.3027-.30994 6.9794-.02165 6.4541-5.75433-.2646-2.8875-.6437-6.13276-.8426-7.21169-.6784-3.68166 2.9463-3.00922 4.8065.89168 1.893,3.96948 3.8669,4.61085 4.832,1.57001 .7612-2.39822 4.3087-2.66211 5.1823-.38549 .3408.88797-.5733,3.97044-2.0313,6.84991s-2.651,6.59784-2.651,8.26305-.675,3.58784-1.5,4.27253c-.9892.82102-1.5,3.05579-1.5,6.56343 0,2.92519-.3907,5.56-.8682,5.8551s-1.1539,2.6906-1.5031,5.3233c-.485,3.6557-1.1659,5.0195-2.8818,5.7724-1.7542.7696-2.2288,1.7696-2.1644,4.5601 .0453,1.9659.3893,4.071.7645,4.678s-.1396,1.3645-1.1518,1.6857-2.8287,1.9276-4.0445,3.572c-1.7649,2.3872-1.9021,2.99-.6806,2.99 .8415,0 1.5299.3975 1.5299.8833s.9019,1.1192 2.0042,1.4075c1.3445.3516 1.8014,1.0524 1.3881,2.1294-.3388.8829-.0938,2.2344.5444,3.0035 .7946.9573.8298,1.6025.1119,2.0463-.5767.3564-1.0486-.0536-1.0486-.911 0-.8698-.8473-1.559-1.9166-1.559-1.0542,0-2.0937-.531-2.31-1.1799-.6194-1.8583-3.7007-.1414-4.7636,2.6542-1.2339,3.2454-3.5093,3.2191-5.6615-.0655zm-14.3483-5.4088c0-.55.45-1 1-1s1,.45 1,1-.45,1-1,1-1-.45-1-1zm81.5427-4.9309c-.3164-.512-.1179-1.2136.441-1.5591 1.1934-.7375 3.0163.1986 3.0163,1.549 0,1.2168-2.7066,1.2247-3.4573.0101zm-81.0427-4.0691c-.3399-.55-.168-1 .382-1s1.2781.45 1.618,1 .1681,1-.3819,1-1.2781-.45-1.6181-1zm91.0313-2.2932c-.4281-.9862-.4977-2.0737-.1548-2.4166 1.0155-1.0155 1.8341.4109 1.3667,2.3815-.4144,1.7469-.4683,1.7485-1.2119.0351zm-45.0368-1.713c-2.1746-2.4029-2.0644-2.5349 2.8605-3.4262 3.0012-.5431 3.7212-.4064 3.2507.6174-.3324.7232-.8822,2.1025-1.2217,3.065-.8151,2.311-2.6534,2.2147-4.8895-.2562zm18.5055-9.5529c0-.8574.45-1.2809 1-.9409s1,1.0414 1,1.559-.45.941-1,.941-1-.7016-1-1.5591zm28.5966-9.2847c-.3461-.55992-.1419-1.31919.4537-1.68727 1.5374-.95021 2.5294.35135 1.2459,1.63487-.7181.7181-1.2775.7354-1.6996.0524zm-29.4748-6.33281c-1.1863-1.8997-1.1328-2.3422.4212-3.47847 .9792-.71604 2.7202-1.08928 3.8687-.82943 3.0324.68605 5.5483-1.68203 5.2996-4.98823-.3159-4.2005 1.6315-4.06353 2.9687.20879 1.3057,4.17164.3697,6.26392-2.8024,6.26392-1.0327,0-1.8776.675-1.8776,1.5s-.675,1.5-1.5,1.5-1.5.45-1.5,1c0,1.86097-3.5099,1.01441-4.8782-1.17658zm30.5449.50991c-.3667-.36666-.6667-1.78641-.6667-3.15498 0-2.42498.0509-2.44225 2-.67835 1.1.99549 2,2.41523 2,3.15499 0,1.39829-2.1714,1.84019-3.3333.67834zm-36.134-7.28054c-.8793-1.42264.2419-3.05279 2.0997-3.05279 .8761,0 1.378.70256 1.191,1.66713-.3896,2.00847-2.3862,2.84922-3.2907,1.38566zm25.644-4.71992c.4866-2.50877 2.8233-2.85325 2.8233-.4162 0,1.22833-.6457,2.08333-1.5733,2.08333s-1.4414-.68037-1.25-1.66713zm-33.6066-2.21956c-.6533-1.05695 2.213-3.6636 3.0776-2.79894 .8332.8332-.372,3.68563-1.5573,3.68563-.5348,0-1.2189-.39901-1.5203-.88669zm-27.5701-4.11331c0-.55.45-1 1-1s1,.45 1,1-.45,1-1,1-1-.45-1-1zm47.5,223.93033c0-1.4935-.6623-2.5305-1.75-2.74-1.2752-.2456-1.75.3159-1.75,2.0697 0,1.3236.3094,2.716.6875,3.0941 1.2922,1.2922 2.8125-.018 2.8125-2.4238zm160.0737.2959c-1.7278-1.6503-1.7546-1.6234-.6095.6094 .6588,1.2846 1.4721,2.0614 1.8073,1.7262s-.2038-1.3862-1.1978-2.3356zm-84.0737.7738c-.3399-.55-1.0414-1-1.559-1s-.941.45-.941,1 .7016,1 1.5591,1 1.2809-.45.9409-1zm30.5-.8334c0-2.5464-1.0671-3.3558-2.6703-2.0253-1.0231.8491-1.0768,1.4584-.2196,2.4913 1.5875,1.9128 2.8899,1.7028 2.8899-.466zm-171.2-.3666c1.8478-1.8478 1.4401-3.3336-1.3202-4.8108-3.4249-1.833-5.0115-.2504-3.3671,3.3586 1.3097,2.8747 2.8024,3.3371 4.6873,1.4522zm25.0165-1.5415c-.1968-1.7048-1.0081-2.8727-2.1456-3.0885-2.9545-.5607-6.6709.7479-6.6709,2.349 0,1.7596 2.5731,1.9808 3.6057.31 .4795-.7759.9947-.4385 1.5268,1 1.2111,3.2741 4.0765,2.8303 3.684-.5705zm65.9835,1.5415c1.6227-1.6227 1.5131-4.2953-.2357-5.7467-.7896-.6553-1.7418-2.5853-2.116-4.2887s-1.4617-3.936-2.4167-4.9612c-1.5457-1.6591-1.876-1.6957-3.0065-.3337-.6985.8417-1.951,1.5303-2.7834,1.5303-1.2185,0-1.3933-.8772-.8967-4.5 .5894-4.3002.5055-4.5-1.8888-4.5-1.7594,0-2.7917-.7523-3.4659-2.5257-1.1427-3.0056-3.6608-4.2106-5.3075-2.5398-.9116.925-.8313,1.4712.3503,2.3828 .8431.6505 2.1672,3.1392 2.9423,5.5306 .9308,2.8715 2.2016,4.6491 3.7426,5.2349 1.2833.488 2.5754,1.6814 2.8714,2.6522 1.8415,6.0401 7.1045,13.265 9.6629,13.265 .7412,0 1.8877-.54 2.5477-1.2zm89.8771-.401c.3379-.8805.0693-1.9378-.597-2.3495-1.6119-.9963-3.7301-5.1795-4.5784-9.0421-.4111-1.8717-1.5532-3.4622-2.8443-3.9613-2.8063-1.0848-6.2364-4.9473-6.9267-7.7998-.3291-1.3602.1533-3.1165 1.2169-4.43l1.7623-2.1763 .6764,3.43c.7148,3.6249 3.9843,7.9876 7.3268,9.7764 1.6899.9044 2.1802.6832 3.1362-1.4149 .6562-1.4403.7872-3.2118.3111-4.2092-.4521-.9473-1.5731-3.2213-2.4912-5.0534s-1.6692-3.7445-1.6692-4.25c0-1.6132 2.9863-.989 6.0282,1.26 1.621,1.1985 3.1946,1.9316 3.497,1.6293 .9579-.958-1.7549-5.7464-3.5845-6.3271-.9658-.3065-2.0084-1.2151-2.3169-2.0192s-1.4751-1.4619-2.5924-1.4619c-1.4692,0-2.0314-.6545-2.0314-2.3652 0-1.3008-.9-3.5093-2-4.9077s-2-3.6879-2-5.0878c0-3.3087-2.0072-7.7973-4.2194-9.4354-.9627-.7129-2.9249-3.3004-4.3605-5.75s-3.2535-4.4539-4.0398-4.4539-1.8575-1.125-2.3803-2.5c-.9666-2.5426-3.3655-3.1877-5.8957-1.5856-2.0822,1.3184-.5266,4.0856 2.297,4.0856 2.6142,0 3.0616.8118 4.1327,7.5 1.0453,6.5266 1.5039,7.5 3.5334,7.5 1.3948,0 1.9326.6957 1.9326,2.5 0,3.5147-2.3579,3.1238-4.0695-.6747-.7868-1.7461-2.3201-3.6586-3.4074-4.25s-2.4374-1.6326-3-2.3137c-1.5532-1.8802-8.6663-.4298-9.2732,1.8909-.7449,2.8483-2.2034,2.2028-3.8325-1.696-.8143-1.949-2.1007-3.7815-2.8587-4.0724s-1.68-1.7313-2.0488-3.2009c-.9726-3.875-2.3853-5.1832-5.5971-5.1832-3.0832,0-3.9056-1.048-6.3187-8.0523-1.7447-5.064-1.5656-5.5679 1.3391-3.767 1.7968,1.114 2.2824,1.0859 3.121-.1807 .5463-.825.8169-2.5285.6014-3.7854-.2517-1.4682.2527-2.6304 1.4106-3.25 2.2969-1.2293 6.9338-1.2546 6.9338-.0379 0,.5097 1.4175,1.6339 3.1499,2.4981 2.3755,1.1851 3.4846,1.2935 4.5119.4409 1.1159-.9261.7337-1.8975-2.1142-5.373-1.9121-2.3334-4.0549-5.5363-4.762-7.1176s-2.7879-4.3924-4.624-6.2469c-2.8564-2.8849-3.249-3.8484-2.7193-6.672 .6647-3.5431-.8174-5.4811-2.7294-3.5691-1.5598,1.5598-2.7129,1.3847-2.7129-.4119 0-.8386-1.125-1.9525-2.5-2.4752s-2.5-1.6367-2.5-2.4753-.8188-1.5247-1.8196-1.5247-2.7979-1.125-3.9934-2.5c-2.3704-2.7262-3.3201-2.9773-5.9505-1.573-.9551.5098-2.524,1.1707-3.4865,1.4686-2.4589.761-2.1778,4.0703.5,5.8865l2.25,1.5262-2.75,1.0711c-3.4113,1.3286-3.4452,1.9058-.1845,3.1455 1.6817.6393 3.208.6315 4.4307-.0229 1.869-1.0002 1.7678-2.6738-.499-8.252-.5363-1.3198-.2203-1.75 1.2851-1.75 6.1256,0 9.2994,9.4618 4.8016,14.3149-1.2222,1.3188-2.8661,2.6217-3.653,2.8953-1.1871.4128-1.1324.8344.3213,2.4748 .9637,1.0875 1.5233,2.2062 1.2435,2.486s1.0227,2.0856 2.8944,4.0128 3.5648,4.3619 3.7624,5.4102 1.3691,2.3502 2.6034,2.8931c2.8159,1.2386 2.9062,3.527.1674,4.2432-3.4153.8931-4.2231,4.7615-1.9321,9.2524 1.0892,2.1349 2.4367,4.1637 2.9945,4.5084s1.0143,1.5145 1.0143,2.5993 .675,2.2314 1.5,2.5479 1.5,1.2025 1.5,1.9687 .5837,1.393 1.2971,1.393c1.9545,0 8.3683,7.1399 9.0536,10.0785 .3308,1.4182 1.7372,3.0961 3.1254,3.7286s2.5382,1.9471 2.5555,2.9214c.0342,1.9165 4.295,7.2715 5.7856,7.2715 .5022,0 2.1.9336 3.5507,2.0747 2.1927,1.7248 2.7328,1.8265 3.2023.6029 .3107-.8094.425-2.0805.2541-2.8247s.1363-1.492.6825-1.662 1.2373.7301 1.5355,2 1.7608,2.8961 3.25,3.6136 2.7077,1.9692 2.7077,2.7814 .675,1.7359 1.5,2.0524c1.4214.5455 2.1754,3.3617.9,3.3617-.33,0-2.175-1.575-4.1-3.5-1.925-1.925-3.8784-3.5-4.3409-3.5-1.7592,0-2.0144,2.0829-.517,4.2207 .8569,1.2234 1.5579,3.6537 1.5579,5.4008 0,2.5914 1.1972,4.3465 6.499,9.5275 3.5744,3.493 6.4994,6.8437 6.5,7.446s.8494,1.8627 1.8863,2.8011 2.1506,3.0331 2.475,4.655c.4684,2.3423 1.1155,2.9489 3.1461,2.9489 1.4215,0 2.8291-.7108 3.1707-1.601zm-11.4271-37.0181c-1.7875-1.9617-3.25-4.3768-3.25-5.3669s-.675-2.0591-1.5-2.3757c-1.6268-.6242-2.1041-4.6383-.5515-4.6383 1.7513,0 6.0515,4.7095 6.0515,6.6275 0,1.044 1.0125,2.3424 2.25,2.8853 1.3907.6101 2.3709,2.0375 2.5665,3.7372 .4378,3.8056-1.5963,3.488-5.5665-.8691zm-21.2041-10.2953c-.774-1.4462-.7892-2.0856-.0497-2.0856 1.2123,0 2.5327,2.8045 1.7084,3.6287-.2984.2984-1.0448-.396-1.6587-1.5431zm-1.5459-6.0856c-.3399-.55-.1414-1 .441-1s1.059.45 1.059,1-.1984,1-.4409,1-.7191-.45-1.0591-1zm-26.8634-50.8096c.8352-3.4849.8423-3.4906 3.3464-2.6959 3.2453,1.0301 2.3185,4.9093-1.2371,5.1781-2.5133.19-2.6977-.027-2.1093-2.4822zm85.4759,102.5221c-.6118-.6119-1.1125-2.563-1.1125-4.3358 0-4.1188-4.2554-9.3767-7.5889-9.3767-2.7241,0-3.2021,2.0986-.9111,4 .825.6847 1.5,1.6687 1.5,2.1868 0,1.5852 8.4753,10.8846 8.8625,9.7243 .1994-.5974-.1381-1.5868-.75-2.1986zm-69.5274-3.548c-.8718-1.6859-1.5851-3.6928-1.5851-4.4599s-.9063-2.2149-2.0141-3.2174c-1.2474-1.1289-1.7928-2.5203-1.4326-3.655 .4654-1.4663.0443-1.8322-2.1083-1.8322-2.1616,0-2.467.2685-1.5551,1.3673 .8632,1.04.7728,1.6678-.3775,2.6224-2.2411,1.86-1.8545,2.995 1.4075,4.1322 3.0015,1.0463 5.0198,4.0648 3.1374,4.6923-.5815.1938-1.0573,1.2631-1.0573,2.3761 0,1.2811.492,1.8349 1.3407,1.5092 .7374-.283 1.9711-.1249 2.7417.3513 2.3598,1.4585 3.1756-.6512 1.5027-3.8863zm90.5274-.452c-.8166-.8167-1.1125-.7048-1.1125.4208 0,1.9879 1.3447,3.3326 1.8417,1.8417 .2108-.6325-.1173-1.6507-.7292-2.2625zm-250.103-3.2011c-.6356-.7659-1.794-1.1476-2.5741-.8482-.8265.3171-1.6698-.2294-2.0207-1.3095-2.7706-8.5293-3.9856-9.4724-3.766-2.9232 .1667,4.9724.9806,6.868 2.693,6.2716 .6371-.2219 2.2833.4723 3.6583,1.5426 2.2346,1.7395 2.5353,1.7716 2.8326.3026 .1829-.9039-.1875-2.27-.8231-3.0359zm189.9905,3.5c0-.5437-.761-1.8774-1.6912-2.9638-1.3158-1.5368-1.9989-1.7197-3.0778-.8244-1.1534.9573-.9952,1.4519.9412,2.9415 2.6343,2.0265 3.8278,2.2905 3.8278.8467zm-183.0739-2.6005c-1.7707-2.1336-3.1456-1.6897-1.9111.6171 .597,1.1154 1.5347,1.7503 2.0838,1.4109 .6439-.3979.5826-1.1179-.1727-2.028zm-41.93664.1018c.67888-.818.99414-2.1132.70059-2.8781-.29355-.765-.02889-1.8958.58812-2.5128 1.60974-1.6097 4.72186-1.3837 4.72186.343 0,1.5631 3.79237,4.0761 4.73247,3.136 1.0309-1.0309.9348-13.0773-.1182-14.8054-1.2715-2.0869-.034-3.6152 1.6024-1.9788 1.8661,1.8661 2.5468,1.3968 2.0143-1.3888-.4453-2.3295.157-4.3313 2.9285-9.7327 .5093-.9927 1.1602-4.5927 1.4464-8 .513-6.109.4575-6.2785-3.9926-12.1951-2.482-3.3-4.9303-6.4846-5.4407-7.0768s-1.23824-2.0548-1.6176-3.25c-.55662-1.7538-1.46175-2.1732-4.68974-2.1732-4.21955,0-4.25044-.0838-2.12101-5.75 .27851-.7411-.3482-1.25-1.53941-1.25-1.33695,0-2.43833,1.0873-3.29191,3.25-.70552,1.7875-1.46204,3.5875-1.68116,4s.53909.75 1.68493.75 2.08333.6262 2.08333,1.3916 1.08157,1.663 2.40349,1.9948c1.73194.4347 2.77971,1.7817 3.75,4.8212 1.00013,3.1329 1.98961,4.3677 3.84651,4.8002 3.17657.7399 3.46337,4.3547.38035,4.7946-1.44644.2064-2.29011-.3494-2.65638-1.75-.73905-2.8261-3.15383-2.5715-5.19783.548-1.73076,2.6415-3.24635,2.7928-9.13843.9124-2.67821-.8547-3.22988,1.0499-2.45831,8.4872 .4822,4.6478.90341,5.5474 2.71866,5.8062 2.6543.3783 3.7398,3.9488 1.79253,5.896-2.74199,2.742-1.26985,6.2978 2.60738,6.2978 1.5587,0 3.11211.45 3.45203,1s1.49148,1 2.55902,1c1.48998,0 1.94098.697 1.94098,3 0,3.3653-.99985,3.7014-4.39428,1.4773-2.70298-1.7711-5.60572-1.0195-5.60572,1.4515 0,2.534 3.06255,11.0712 3.97156,11.0712 .43095,0 1.33899-.6693 2.01787-1.4873zm3.63045-24.94c-2.79761-2.2879-2.81909-2.3747-.75-3.0314 3.1213-.9907 2.68374-4.7175-.93215-7.9392-3.24077-2.8876-3.42542-4.8785-.50496-5.4447 1.94162-.3764 7.45542,5.3642 7.53275,7.8426 .02574.825.71695,2.7848 1.53595,4.3551 1.3204,2.5318 1.3197,2.7902-.0062,2.2814-2.40909-.9244-4.32242.3084-3.76813,2.428 .63521,2.4291.42343,2.3956-3.10726-.4918zm247.38009,25.3215c0-.4918-.45-.8942-1-.8942s-1-.8519-1-1.893c0-3.1339-2.9243-3.4362-4.0707-.4209-.6287,1.6536-.6511,2.8668-.0597,3.2309 1.5564.958 6.1304.941 6.1304-.0228zm-123-.8811c2.3277-1.4838-.0855-4.5131-3.5953-4.5131-3.6173,0-4.3819,2.7265-1.1951,4.2614 2.8986,1.3961 2.9879,1.4008 4.7904.2517zm-42.8875-5.3006c-.8166-.8167-1.1125-.7048-1.1125.4208 0,1.9879 1.3447,3.3326 1.8417,1.8417 .2108-.6325-.1173-1.6507-.7292-2.2625zm-37.1125-1.2373c0-1.8337-.7521-2.8107-2.7481-3.5696-1.5115-.5747-3.4919-1.7178-4.4008-2.5404s-1.8906-1.1103-2.1816-.6395c-.5898.9544 6.9509,9.2743 8.4057,9.2743 .5087,0 .9248-1.1362.9248-2.5248zm204.8104-5.2252c-.2946-3.56-.4878-3.75-3.8104-3.75-2.8253,0-3.5.3829-3.5,1.9863 0,1.1946.7972,2.1358 2,2.3614 1.1.2064 2.3599,1 2.7997,1.7637 1.5094,2.6207 2.8209,1.3871 2.5107-2.3614zm21.8792-1.8366c-1.2043-1.9488-4.3271-6.1943-6.9396-9.4345s-4.75-6.1577-4.75-6.4832-1.575-3.0539-3.5-6.0632-3.5-5.9126-3.5-6.452c0-1.3633-2.3531-1.2274-3.8.2195-1.7004,1.7004-1.5999,1.9725 2.3,6.2302 1.925,2.1017 3.5,4.4238 3.5,5.1603s.8406,1.7889 1.8679,2.3388 2.1227,2.2531 2.434,3.7851c.6152,3.0268 8.946,13.3985 11.5749,14.4104 2.8211,1.086 3.0713-.0566.8128-3.7114zm-90.6896,2.709c0-.4826-.6207-1.3927-1.3795-2.0224s-1.6491-2.4934-1.9788-4.1415-1.5088-3.973-2.6205-5.1662-2.0212-2.9846-2.0212-3.9809c0-1.9419-.7825-2.2369-2.7-1.018-2.0501,1.3032.5026,9.181 3.3225,10.2531 1.5345.5834 2.1371,1.4166 1.7514,2.4215-.3806.9918-.0102,1.532 1.0505,1.532 .9011,0 1.8974.675 2.214,1.5 .6185,1.6118 2.3616,2.0712 2.3616.6224zm79.924-.8724c-.1593-3.6628-2.5579-8.0419-6.0894-11.117l-3.6654-3.1916 1.0949,3.7793c.6021,2.0786 1.602,4.4543 2.222,5.2793 .62.825 1.6546,2.7375 2.2991,4.25 1.296,3.041 4.2586,3.7568 4.1388,1zm-147.1741-5.8335c-.953-.953-2.8635.5906-2.1533,1.7397 .4221.683.9815.6657 1.6996-.0524 .5888-.5888.7929-1.3481.4537-1.6873zm76.4214.9285c2.38-2.1539 2.3191-4.5913-.1713-6.845-1.2816-1.1599-2.008-3.1013-2.0222-5.405l-.0222-3.595-1.9094,2.485c-1.9502,2.5383-3.5106,2.1897-3.5334-.7893-.0155-2.0149-3.2807-2.8346-4.869-1.2222-.8604.8734-.7101,1.4815.6062,2.454 .9625.7111 1.75,2.3046 1.75,3.5411 0,1.8987.3886,2.1506 2.5,1.6207 2.6731-.6709 3.5085.8097 1,1.7723-.825.3166-1.5,1.4897-1.5,2.607 0,2.135 1.4486,2.7327 2.5,1.0314 1.0078-1.6307 2.7666-1.1372 2.1038.5902-.6132,1.5979-.0146,3.4098 1.1265,3.4098 .3367,0 1.4352-.7448 2.441-1.655zm-82.1713-1.845c0-.825-.4234-1.5-.9409-1.5-1.261,0-2.1641,1.5616-1.3652,2.3605 1.1262,1.1262 2.3061.6859 2.3061-.8605zm-76.3421-1.0509c.579-1.5088-3.1227-6.4491-4.8322-6.4491-1.4568,0-.8815,4.2807.8293,6.1712 2.0241,2.2366 3.2195,2.3196 4.0029.2779zm109.5173-2.0529c-.1787-1.0429-1.297-2.653-2.4851-3.5778-2.8305-2.2035-1.4177-3.5458 1.8765-1.7828 2.1967,1.1756 2.6951,1.1639 3.4832-.0818 1.2107-1.914 1.1894-3.688-.0534-4.4561-.5521-.3412-.7274-1.721-.3898-3.0663 .8357-3.3295-1.8679-7.2135-5.2991-7.6129-2.1841-.2543-2.8691-.9732-3.3943-3.5624-.8578-4.2287-2.7531-6.4255-5.2235-6.0544-3.4693.5212-4.4236,3.3828-2.0021,6.0033 1.1664,1.2622 2.8379,4.0352 3.7145,6.1621 1.1673,2.8324 2.0626,3.7458 3.3459,3.4134 1.4438-.3739 1.7977.3093 2.0115,3.8828 .1449,2.4228-.1861,4.3367-.75,4.3367-1.7274,0-1.1092,3.6035 1.1,6.412 2.326,2.957 4.5735,2.9483 4.0657-.0158zm131.3248-2.3962c-.3399-.55-.8164-1-1.059-1s-.441.45-.441,1 .4766,1 1.0591,1 .7809-.45.4409-1zm-168.4653-3.5418c1.0612-1.2787.9114-2.0399-.8775-4.4596-1.1864-1.6047-2.1572-3.3859-2.1572-3.9581s-.8581-1.0405-1.9068-1.0405c-2.3759,0-9.7707-8.6704-10.2434-12.0103-.4212-2.976-5.404-5.8355-7.1412-4.0983-.7931.7931-.4904,1.9123 1.0983,4.0612 1.2062,1.6315 2.2114,3.3221 2.2338,3.7569s1.3723,2.3485 3,4.2527 2.9593,4.0514 2.9593,4.7714 1.125,1.8218 2.5,2.4483 2.5,1.7043 2.5,2.3952c0,1.1676 4.7197,5.3201 6.1276,5.3912 .3451.0174 1.2034-.6622 1.9071-1.5101zm-71.0347-1.2582c0-.44-.4352-1.2353-.9672-1.7673-1.7543-1.7543-.0048-5.4327 2.5839-5.4327 2.8441,0 3.1031-2.0387.5522-4.3472-1.9646-1.778-3.3544-1.3-2.5226.8676 .2796.7287-.4091,2.2424-1.5304,3.3637-1.7329,1.7329-1.8798,2.4945-.9795,5.0773 .9558,2.7416 2.8636,4.233 2.8636,2.2386zm100.6758-2.7974c.3971-1.035-.4061-2.4297-2.2814-3.9616-4.6968-3.8367-6.7758-1.6479-2.8944,3.0472 2.3328,2.8218 4.3098,3.1711 5.1758.9144zm-92.6758-.7956c0-.7662-.675-1.6521-1.5-1.9687-1.5035-.5769-2.118,1.4103-.8333,2.695 1.1212,1.1212 2.3333.7439 2.3333-.7263zm154.3762-1.1449c.7703-2.0074-2.2903-3.2079-3.4618-1.3579-1.3518,2.135-1.0947,2.8958.9786,2.8958 1.0412,0 2.1586-.6921 2.4832-1.5379zm-110.0393-.1323c1.2287-1.2287-4.3061-8.2013-6.5869-8.298-1.6007-.0679-.6452,3.5525 1.25,4.7361 1.1.687 2,1.9202 2,2.7405 0,1.5177 2.119,2.0393 3.3369.8214zm178.564-2.3911c-1.9381-1.1978-2.4114-.2588-.8299,1.6468 .9645,1.1621 1.4739,1.28 1.7644.4085 .2246-.674-.1959-1.5988-.9345-2.0553zm-87.7009-.1387c-.66-.66-1.2141-2.1225-1.2314-3.25s-1.1423-2.8585-2.5-3.8467c-2.2446-1.6337-2.4686-1.6461-2.4686-.1373 0,1.834 4.9473,8.2476 6.45,8.3618 .5225.0397.41-.4678-.25-1.1278zm-52.5229-3.401c.7075-1.8436-1.7109-3.7652-3.0515-2.4246-1.0915,1.0915-.0897,4.0256 1.3744,4.0256 .5846,0 1.3393-.7205 1.6771-1.601zm137.3229.7234c0-1.2605-2.9354-3.5203-3.6477-2.8081-1.024,1.0241.5043,3.6857 2.1164,3.6857 .8422,0 1.5313-.3949 1.5313-.8776zm-72.417-2.6479c-.5051-2.0127-8.583-11.5151-8.583-10.0967 0,.2079.6975,2.0472 1.55,4.0874 1.1415,2.7321 1.2604,4.0583.4514,5.0331-.7596.9153-.775,1.5235-.0499,1.9717 .5767.3564 1.0485-.0911 1.0485-.9944 0-1.424.3657-1.3696 2.75.4093 3.5113,2.6197 3.5906,2.6082 2.833-.4104zm-80.583-2.597c0-1.0326-.3949-1.8775-.8775-1.8775-1.6075,0-3.3548,2.9522-2.7225,4.5999 .5054,1.3169.906,1.391 2.1119.3902 .8185-.6792 1.4881-2.0799 1.4881-3.1126zm13.5593.0265c1.0568-1.7099-2.2775-4.5858-3.6849-3.1784-.627.627-.8693,1.8452-.5385,2.7071 .6921,1.8036 3.2253,2.0863 4.2234.4713zm-46.5593-3.3326c0-.8127-3.1449-3.5714-4.0714-3.5714-1.3866,0-1.1212,2.7556.3214,3.3377 1.6136.6511 3.75.7842 3.75.2337zm-57.3483-4.106c.9697-2.5271-1.6945-10.3443-3.7476-10.9959-1.0187-.3233-2.7944-1.9112-3.9462-3.5287-2.556-3.5896-4.95787-3.8483-4.95787-.5341 0,1.5898 1.35777,3.5297 3.99997,5.7151 2.2,1.8196 4,3.8654 4,4.5462 0,1.9251 2.2215,6.332 3.1919,6.332 .479,0 1.1359-.6906 1.4598-1.5346zm-24.65167-.9064c0-2.3911-1.8272-2.7504-2.98501-.587-.9251,1.7285-.78485,2.028.94983,2.028 1.11935,0 2.03518-.6485 2.03518-1.441zm158.99997-1.559c0-2.3987-.4289-3-2.1397-3-2.4756,0-4.0918-1.8155-6.8995-7.75-1.7018-3.5971-2.4678-4.25-4.9858-4.25-3.3564,0-3.7393-.7206-1.3222-2.4881 1.6807-1.2289.9899-4.0271-.7315-2.9633-1.6694,1.0318-5.4459-2.8897-5.1027-5.2986 .1763-1.2375-.1719-2.25-.7738-2.25s-1.5328-1.1536-2.0689-2.5634c-.8124-2.1369-1.5155-2.5113-4.2252-2.25-2.8729.2769-3.2507.6608-3.2507,3.3035 0,2.5364.4554,3.0718 3,3.5275 2.8724.5145 2.9855.7276 2.6586,5.0099-.4031,5.281-.6393,5.6483-2.5906,4.0289-.8142-.6757-1.9501-.9383-2.5242-.5835-1.7091,1.0563-1.1869,2.5271.8972,2.5271 1.0676,0 2.2191.45 2.559,1 1.0452,1.691 2.5,1.109 2.5-1 0-1.1.45-2 1-2s1,.9 1,2 .4179,2 .9286,2c1.0433,0 2.1485,1.0305 6.8149,6.3542 3.1684,3.6148 3.3015,3.6624 5.75,2.0581 2.4562-1.6094 2.5065-1.5896 2.5065.9862 0,3.7002 2.0835,6.6015 4.7406,6.6015 1.8438,0 2.2594-.5519 2.2594-3zm-16-11.5834c0-1.7659 2.1528-1.4584 2.7709.3959 .2177.6531-.3167,1.1875-1.1875,1.1875s-1.5834-.7125-1.5834-1.5834zm43,11.4416c0-.6279-1.35-2.4318-3-4.0087s-3-3.4855-3-4.2416c0-1.5519-3.4677-2.7494-5.5964-1.9325-.772.2962-1.4036,1.849-1.4036,3.4506 0,2.599.2661,2.8453 2.4749,2.2909 1.9943-.5005 2.7007-.1258 3.6371,1.9294 1.0069,2.21 1.9667,2.7601 6.138,3.5175 .4125.0749.75-.3776.75-1.0056zm47.0125-4.345c-2.7478-2.9249-4.215-3.2613-3.3291-.7632 1.1054,3.1169 3.5815,5.3851 4.6798,4.2868 .6805-.6805.2395-1.8309-1.3507-3.5236zm-145.603,2.6333c.2901-.4694-.007-2.2694-.6603-4-.924-2.448-1.7812-3.1465-3.8614-3.1465-4.0207,0-4.2959,2.5328-.5922,5.452 3.4659,2.7319 4.3016,3.0088 5.1139,1.6945zm119.5857-3.1224c1.2825-.8108 1.2114-1.1595-.5-2.4528-2.0133-1.5214-6.4952-2.1425-6.4952-.9001 0,1.1459 3.2513,4.3296 4.405,4.3135 .6023-.0085 1.7678-.4407 2.5902-.9606zm-170.6458-3.5562c-.4995-1.3016-2.3494-2.1282-2.3494-1.0497 0,1.4857 1.352,3.4823 2.0611,3.044 .4684-.2895.5981-1.1869.2883-1.9943zm7.1202-4.183c.5333-1.2119 1.8787-2.3342 2.9898-2.4942 2.9278-.4214 3.1675-3.5776.3634-4.7854-1.2775-.5503-3.1343-1.5641-4.1262-2.2529-1.494-1.0376-1.9636-.9714-2.7372.386-.5136.9011-2.0646,1.9221-3.4466,2.269-2.7941.7013-3.0651,1.687-1.3494,4.9083 2.6098,4.9001 6.6002,5.8461 8.3062,1.9692zm184.5304,1.8299c0-2.0363-2.899-7.5308-5.7768-10.9485-6.7657-8.0352-8.2232-10.0014-8.2232-11.094 0-.6265-1.575-2.714-3.5-4.639s-3.5-4.16-3.5-4.9667-.5967-1.4666-1.3261-1.4666c-1.2125,0-4.4739-3.4276-8.0866-8.4985-.7831-1.0991-1.7612-1.6609-2.1737-1.2485-1.0289,1.029 1.2866,5.1023 5.1174,9.0019 1.7532,1.7848 3.4886,4.4985 3.8563,6.0304 .4024,1.6763 1.6529,3.1597 3.1407,3.7253 1.3596.5169 2.472,1.5794 2.472,2.361s1.4625,2.7122 3.25,4.29c3.659,3.2298 6.0687,6.6603 9.5453,13.5884 1.311,2.6125 3.0184,4.75 3.7942,4.75s1.4105-.3984 1.4105-.8852zm-204-3.0212c0-2.3118.3701-2.8096 1.8091-2.4333 2.9476.7708 5.446-6.2057 3.206-8.9525-4.8162-5.9061-6.0151-7.6989-6.0151-8.9952 0-1.708-2.0632-2.7126-5.5706-2.7126-1.8336,0-2.4036-.536-2.3928-2.25 .0127-2.0326-.4821-7.0933-.88-9-.4379-2.0982-3.03074-.298-4.32819,3.005-1.37308,3.4955-1.32177,4.0885.74258,8.5818 1.21967,2.6547 3.13741,5.471 4.26151,6.2584s3.4651,3.5374 5.2021,6.1111c2.8287,4.1914 2.9898,4.8026 1.5444,5.8596-.9884.7227-1.3761,1.9072-1.0004,3.057 .3373,1.0324.781,2.4396.986,3.1271 .7149,2.3978 2.4354,1.2277 2.4354-1.6564zm224.1834-.3103c-.7176-.7176-1.1834-.7766-1.1834-.15 0,1.3348 1.1826,2.5174 1.85,1.85 .2842-.2842-.0158-1.0492-.6666-1.7zm-35.2935-1.1507c.8616-1.0382.7813-1.6606-.3337-2.586-1.8333-1.5216-3.5562-.5466-3.5562,2.0124 0,2.243 2.2313,2.5721 3.8899.5736zm-16.3257-5.4018c-.3286-.3286-1.1109-.0841-1.7385.5435-.8546.8546-.7876,1.5694.2667,2.8483 1.3032,1.5808 1.4322,1.5405 1.7384-.5435 .182-1.238.062-2.5197-.2666-2.8483zm-179.5642-1.2081c0-2.9365-1.0907-5.0227-2.626-5.0227-1.33527,0-1.2735,2.0785.2025,6.8133 .5717,1.8339 2.4235.4657 2.4235-1.7906zm153.6642,1.41c.7792-2.0305-1.0799-3.8709-3.1196-3.0882-1.333.5115-1.3857.9369-.3267,2.6328 1.5154,2.4264 2.6333,2.5741 3.4463.4554zm37.3358-.4327c0-.55-.45-1-1-1s-1,.45-1,1 .45,1 1,1 1-.45 1-1zm-29.57-1.8867c.6806-1.1012-1.8676-3.3423-2.772-2.438-.3619.3619-.658,1.258-.658,1.9913 0,1.4897 2.5779,1.8254 3.43.4467zm48.225-1.9421c-.9102-1.0058-1.655-2.8533-1.655-4.1056s-1.125-3.6139-2.5-5.248-2.5069-4.1741-2.5153-5.6444c-.0194-3.3847-.4711-3.9668-6.1481-7.9232-5.3278-3.713-5.4329-3.7444-6.1637-1.8398-.7172,1.8689 18.0077,26.5898 20.1405,26.5898 .2731,0-.2481-.823-1.1584-1.8288zm11.845-3.1712c-1.0016-1.1068-2.046-1.7873-2.321-1.5123s.3194,1.4055 1.321,2.5123 2.0461,1.7872 2.3211,1.5122c.275-.275-.3195-1.4055-1.3211-2.5122zm-115.688-2.9595c2.7324-3.6958 2.8226-4.6751.188-2.0405-1.1,1.1-2.45,2-3,2s-1,.675-1,1.5c0,2.3253 1.4139,1.784 3.812-1.4595zm49.188-2.0405c0-.55-1.0125-.9931-2.25-.9847-1.8194.0124-1.9629.2008-.75.9847 1.9388,1.2529 3,1.2529 3,0zm-47-5.9687c0-1.339-.4797-1.7845-1.5-1.393-.825.3166-1.5,1.2025-1.5,1.9687s.675,1.393 1.5,1.393c.8254,0 1.5-.8854 1.5-1.9687zm40.3617-2.5313c-.3166-.825-.7525-1.5-.9687-1.5s-.393.675-.393,1.5 .4359,1.5.9687,1.5 .7095-.675.393-1.5zm-121.8078-10.4129c-.8262-1.3368-4.5539-1.4488-4.5539-.1368 0,1.4377 3.379,3.0444 4.3629,2.0745 .4746-.4678.5605-1.3398.191-1.9377zm190.2695,1.27c-.3712-1.8861-3.4189-4.095-4.3564-3.1574-.346.3459-.1267,1.5675.4872,2.7146 1.3291,2.4834 4.3386,2.8278 3.8692.4428zm-210.8234-9.3571c0-7.9106-.2118-8.9982-1.75-8.9847-3.6118.0316-4.6099,1.5135-3.3852,5.0265 1.4856,4.2616 1.4634,5.6863-.0648,4.1582-1.6089-1.609-2.4665-1.5113-3.1856.3626-.7683,2.0022 4.2927,8.4373 6.6356,8.4373 1.5371.0001 1.75-1.0952 1.75-8.9999zm55.3913,6.4226c.6658-1.735-.5548-1.8591-2.1913-.2226-.66.66-1.2,1.5458-1.2,1.9686 0,1.2449 2.796-.1945 3.3913-1.746zm11.6087-.3002c0-1.5766-2.7504-3.2077-6.4107-3.8017-3.794-.6156-4.8892.9793-2.3893,3.4793 1.3751,1.375 8.8,1.6471 8.8.3224zm104-4.5154c0-.7662-.7118-1.6662-1.5818-2-2.4145-.9266-2.5751-.7688-1.4182,1.393 1.2314,2.3008 3,2.6586 3,.607zm-147-2.6546c0-1.4917-3.2782-4.8985-4.1783-4.3422-1.4548.8991-.875,4.2606.907,5.2578 1.8336,1.0261 3.2713.6238 3.2713-.9156zm155.1988-3.4155c-.6825-1.498-1.9837-2.5369-3.1773-2.5369-2.437,0-2.5301,1.1157-.4315,5.1739 1.4522,2.8083 1.7275,2.9372 3.1773,1.4873 1.2941-1.294 1.3738-2.0561.4315-4.1243zm22.8012,3.6856c0-1.8904-3.1712-5.094-4.5273-4.5737-1.8922.7261-1.8637,1.8173.0988,3.7797 1.6391,1.6391 4.4285,2.1392 4.4285.794zm-12.1766-4.5554c.218-1.1241-.3521-1.6671-1.75-1.6671-1.1404,0-2.0734.6-2.0734,1.3333 0,3.0627 3.2393,3.3455 3.8234.3338zm-26.2084-1.132c-.8882-1.3556-1.615-3.1398-1.615-3.9648 0-1.813-3.6281-3.981-4.4464-2.657-.633,1.0242.982,5.8221 2.6267,7.8039 .5856.7055 1.9613,1.2828 3.0572,1.2828 1.888,0 1.9078-.1294.3775-2.4649zm-58.6374-2.5771c-1.222-2.2832-1.0739-2.2521-4.5087-.9462l-2.6612,1.0118 2.3385,1.8937c3.0644,2.4813 6.469,1.1006 4.8314-1.9593zm105.0224,2.4762c0-2.1266-1.8487-5.4342-3.0373-5.4342-1.8185,0-7.7502-7.1879-8.3319-10.0963-.7292-3.6458-3.6308-3.9685-3.6308-.4037 0,1.5957.563,2.5 1.5563,2.5 .8828,0 2.4175,1.9471 3.5468,4.5 1.0948,2.475 2.6586,4.5 3.4751,4.5s1.7653.7875 2.1085,1.75c1.4049,3.941 4.3133,5.7509 4.3133,2.6842zm-204.1588-3.4445c.1877-1.3693 1.0192-3.2489 1.848-4.1767 1.4537-1.6276 1.0828-3.813-.6472-3.813-1.0717,0-5.042,7.5627-5.042,9.6041 0,2.5758 3.4667,1.1189 3.8412-1.6144zm194.1588.6173c0-.7662-.675-1.6521-1.5-1.9687-1.6769-.6435-1.7596-.4786-.893,1.7799 .7497,1.9537 2.393,2.0833 2.393.1888zm-15.6383-1.107c-.3166-.825-.7525-1.5-.9687-1.5s-.393.675-.393,1.5 .4359,1.5.9687,1.5 .7095-.675.393-1.5zm-38.9515-2.5993c-2.2176-2.4504-4.4102-2.4356-4.4102.0297 0,1.2254.8218,2.0659 2.25,2.3013 3.3691.5553 4.079-.2108 2.1602-2.331zm27.3426,1.1236c1.0248-1.6411.8983-2.5302-.747-5.25-1.0895-1.8009-2.4087-4.2431-2.9316-5.4272s-1.4286-2.4481-2.0125-2.809c-1.5628-.9659-1.2913-2.5381.4383-2.5381 .825,0 1.5.474 1.5,1.0534s1.2375,2.6044 2.75,4.5c2.7732,3.4755 5.2385,4.5043 5.2637,2.1966 .0075-.6875.2673-2.1948.5772-3.3494 .4493-1.6734-.1623-2.4439-3.0136-3.797-3.5842-1.7008-4.894-4.6036-2.0773-4.6036 .825,0 1.5.45 1.5,1s.4858,1 1.0795,1c.6644,0 .8408-1.0867.4587-2.8263-.3414-1.5545-.2168-3.917.277-5.25 1.247-3.3668.4547-4.9237-2.5055-4.9237-1.9242,0-2.3747-.3881-1.8967-1.6337 .3447-.8985-.2821-3.1742-1.3931-5.0572-2.4101-4.0848-2.53-5.3091-.5199-5.3091 .9334,0 1.5-.9445 1.5-2.5 0-3.0058-1.523-3.2597-3-.5-1.2945,2.4189-6.7646,2.777-7.6383.5-.3166-.825-1.4275-1.5-2.4687-1.5-1.3656,0-1.893.715-1.893,2.5667 0,2.9405 4.5555,9.4333 6.6187,9.4333 .7597,0 1.3813.45 1.3813,1s-1.5891,1-3.5313,1c-3.5208,0-6.295,2.8912-3.6275,3.7803 1.2727.4243 4.1588,5.4 4.1588,7.17 0,2.3134-2.8707.8592-3.8501-1.9503-.5752-1.65-1.2251-3-1.4442-3-1.1826,0-6.7057,3.2695-6.7057,3.9696 0,.4528 1.4912,2.1325 3.3138,3.7327s4.0365,4.7158 4.9198,6.9234c1.5062,3.7644 8.0253,11.3743 9.744,11.3743 .4276,0 1.3377.675 2.0224,1.5 1.6385,1.9742 2.273,1.8938 3.7528-.4757zm-10.0861-15.691c-.9831-.9831-.8111-5.3333.2109-5.3333 .4826,0 1.433.6692 2.1119,1.4872 1.962,2.3642-.2093,5.9596-2.3228,3.8461zm33.4371,12.3705c-1.2835-1.2835-2.585-.2915-1.6348,1.2459 .3681.5956 1.1273.7998 1.6873.4537 .683-.4221.6657-.9815-.0525-1.6996zm-188.1038-5.7629c0-.5175-.45-.9409-1-.9409s-1,.7015-1,1.559 .45,1.2809 1,.941 1-1.0415 1-1.5591zm3.6042-3.6701c-1.0165-1.0165-1.8552.5139-1.0212,1.8634 .63,1.0194.8656,1.0202 1.2043.004 .2316-.6948.1492-1.5351-.1831-1.8674zm93.3958-.2513c2.4706-1.5646-1.0435-6.4366-4.9284-6.8329-3.1654-.3229-4.2325,1.1539-1.5716,2.175 .825.3166 1.5,1.4147 1.5,2.4403 0,3.1765 2.05,4.0857 5,2.2176zm40.8234-4.6984c-.4295-2.2299-2.208-2.278-2.633-.0711-.2108,1.0946.2797,1.75 1.3096,1.75 1.0034,0 1.5204-.6559 1.3234-1.6789zm-133.8234-3.8802c0-.8574-.45-1.2809-1-.9409s-1,1.0414-1,1.559 .45.941 1,.941 1-.7016 1-1.5591zm125,.5591c0-.55-.7015-1-1.559-1s-1.2809.45-.941,1 1.0415,1 1.5591,1 .9409-.45.9409-1zm11.8-7.2c2.857-2.857-.7962-7.8-5.7648-7.8-2.5107,0-2.5104.0267.0658,4.9692 2.1727,4.1684 3.635,4.8948 5.699,2.8308zm-11.7794-6.7873c-1.8621-1.1509-2.4469-.5661-1.6113,1.6114 .5131,1.3372.92,1.4466 1.8652.5014s.8897-1.406-.2539-2.1128zm19.9794-.8903c0-1.2605-2.9354-3.5203-3.6477-2.8081-1.024,1.0241.5043,3.6857 2.1164,3.6857 .8422,0 1.5313-.3949 1.5313-.8776zm-4-6.1224c0-.55-.4765-1-1.059-1s-.7809.45-.441,1 .8165,1 1.0591,1 .4409-.45.4409-1zm-5-5.1354c0-.9992-4.528-5.8646-5.4579-5.8646-.6249,0 .7113,4.4546 1.7248,5.75 1.2214,1.561 3.7331,1.6382 3.7331.1146zm7,.1354c0-.55-.45-1-1-1s-1,.45-1,1 .45,1 1,1 1-.45 1-1zm9.9521-14.5578c-1.7758-2.1397-2.3356-1.0274-.8655,1.7195 .79,1.4761 1.4054,1.8625 1.6755,1.052 .2349-.7045-.1297-1.9517-.81-2.7715zm10.393-27.98536c-.3257-.84872-.8066-1.32866-1.0687-1.06653s-.18.95654.1825,1.54313c.9861,1.59546 1.5624,1.28551.8862-.4766zm-16.3451-.45687c0-.55-.45-1-1-1s-1,.45-1,1 .45,1 1,1 1-.45 1-1zm-32.6861-13.47337c-2.7143-3.40176-5.3139-4.6251-5.3139-2.50066 0,.56429 1.6875,3.29457 3.75,6.0673 3.5229,4.73593 3.769,4.88742 4.0639,2.50063 .2013-1.62994-.6948-3.80487-2.5-6.06727zm-8.6589-.20504c-.2871-.28702-1.0237-.21174-1.637.1673-.8004.49468-.7486,1.1313.1835,2.25586 1.1699,1.41152 1.3321,1.39495 1.6369-.16729 .1862-.9537.1036-1.96884-.1834-2.25587zm33.4575.39091c-.8166-.81667-1.1125-.70476-1.1125.42083 0,1.98786 1.3447,3.33256 1.8417,1.84167 .2108-.6325-.1173-1.65063-.7292-2.2625zm-38.3626-.29597c-.953-.95296-2.8635.5906-2.1533,1.7397 .4221.683.9815.66575 1.6996-.05243 .5888-.58876.7929-1.34803.4537-1.68727zm-11.4029-12.28391c1.5528-.61105 1.6241-.91173.4479-1.88786-1.7456-1.44878-5.7949-.49017-5.7949,1.37187 0,1.47806 2.3307,1.70297 5.347.51599zm14.653-4.05317c0-1.162-5.603-2.44279-6.9756-1.59453-2.2027,1.36136-.8377,2.51508 2.9756,2.51508 2.2,0 4-.41425 4-.92055z" fill="#b3b3b3"/>
  <path d="m179.9458,462.5053c-3.3141-1.0714-5.264-1.1887-7.3992-.445-4.5554,1.5866-10.5461,1.1946-17.6008-1.1516-8.1719-2.7177-24.5301-10.5676-26.1903-12.568-.6882-.8292-4.4144-3.6945-8.2805-6.3673s-9.5042-6.8967-12.5292-9.3866-7.525-5.851-9.99997-7.4691c-2.475-1.618-5.42645-3.5968-6.55877-4.3972-3.34966-2.3678-10.50031-18.105-9.80537-21.5797 .37591-1.8796-.05858-4.1089-1.21749-6.2467-1.46282-2.6983-1.94106-6.9004-2.54076-22.324-.40632-10.45-1.28075-21.475-1.94319-24.5-.77562-3.5418-1.32448-18.4953-1.54158-42-.18543-20.075-.79157-38.975-1.34697-42-3.26475-17.7815-1.37254-44.6666 3.52456-50.0779 .96144-1.0623 2.09226-3.8419 2.51294-6.1768 1.43399-7.9592 4.2898-14.2389 9.13009-20.0763 5.56286-6.7089 8.93633-12.9457 11.2029-20.7117 .87601-3.0016 2.37821-6.6343 3.33821-8.0729l4.4549-6.6659c1.4902-2.2277 3.141-4.3171 3.6683-4.643 .9891-.6113 8.1222-21.3393 8.1222-23.6022 0-.6989 1.399-4.2413 3.1088-7.872 7.1329-15.14675 8.8213-18.87004 10.9293-24.10133 1.2189-3.025 3.959-8.39659 6.0891-11.93686s3.8728-6.79893 3.8728-7.24146 2.4924-2.21116 5.5385-3.93031 6.7492-4.71304 8.229-6.65309c1.6754-2.19662 4.9801-4.5547 8.7598-6.25049 3.3381-1.49773 6.8044-3.84502 7.7028-5.21622 1.4134-2.15703 2.5653-2.55974 8.5459-2.98765 4.4873-.32107 8.9388-1.42237 12.689-3.13925 4.865-2.22726 7.1781-2.64467 14.6559-2.64467 9.5718,0 11.5402,1.26469 4.6291,2.97416-2.3375.57818-7.625,1.99265-11.75,3.14325s-10.1089,2.46375-13.2976,2.91809c-7.5486,1.07554-19.5164,5.59754-22.7571,8.59863-1.4051,1.30123-2.9924,2.36587-3.5273,2.36587-1.5408,0-6.5673,6.16087-8.1588,10-.798,1.925-2.2603,4.4-3.2497,5.5-1.7399,1.93445-10.0095,17.54776-10.0095,18.89823 0,.60222-5.2615,9.0204-11.7729,18.8359-1.3624,2.0538-2.4771,4.9413-2.4771,6.4167 0,2.33-2.4869,8.5463-5.8915,14.7262-.5688,1.0324-1.6832,4.4074-2.4766,7.5s-2.8547,9.6005-4.5808,14.4618c-2.5629,7.2181-3.6117,9.0059-5.7197,9.7494-1.4198.5008-3.1877,1.254-3.9287,1.6739-1.6875.956-4.11762,7.7891-4.13761,11.6344-.00854,1.6423-1.59722,5.2801-3.66923,8.4017-2.00979,3.0279-3.76682,6.4495-3.90451,7.6035s-.9606,3.4455-1.8287,5.0922-2.10225,5.4717-2.74254,8.5-2.2652,9.3311-3.61089,14.0061c-4.25134,14.7693-6.2352,23.3842-6.24738,27.129-.0065,1.996.92608,8.746 2.07238,15s2.45817,13.4387 2.91525,15.966 1.47753,6.8023 2.26767,9.5c1.14345,3.904 1.26653,7.7619.60317,18.905-.45839,7.7-1.27418,16.025-1.81285,18.5-1.52277,6.9965-2.20449,15.395-1.34039,16.513 .43063.5571 2.08989,1.4571 3.68724,2 4.64955,1.5801 8.98779,10.3966 8.85067,17.987-.06624,3.6669.44639,6.8612 1.31833,8.2148 .7847,1.2181 1.42672,3.8678 1.42672,5.8882 0,2.8956.84684,4.592 3.99997,8.0128 4.1526,4.505 5.0817,7.7551 2.5,8.7458-2.1168.8123-1.8739,2.2816 1,6.0495 1.375,1.8027 2.5,3.7279 2.5,4.2783 0,1.695-3.9763,4.7426-4.8759,3.7369-.4558-.5095-3.37015-3.7349-6.47638-7.1676-5.29099-5.8472-5.64769-6.5597-5.64769-11.2814 0-3.6099.43582-5.2073 1.53589-5.6295 1.3419-.5149 1.35649-.8631.11548-2.7572-.78122-1.1922-1.66649-5.7504-1.96727-10.1292-.73368-10.6808-1.91281-16.3472-4.21157-20.2386-3.36235-5.6921-3.99009-3.5054-3.69611,12.8752 .39355,21.9285 2.40157,32.5889 6.55746,34.8131 1.25453.6714 3.83013,3.2309 5.72354,5.6879s5.83025,6.8023 8.74845,9.6564 6.2174,6.6642 7.3315,8.4669 2.4514,3.2777 2.9716,3.2777 3.971,3.1858 7.6684,7.0797 9.8726,9.4825 13.7226,12.4194c5.8568,4.4675 8.6333,5.7979 17,8.1458 9.1483,2.5671 11.2277,2.7848 24.4139,2.5549 15.6146-.2722 17.77-.8239 27.5319-7.047 2.7202-1.734 5.7718-3.1528 6.7814-3.1528 2.609,0 3.3219,2.7358 1.2962,4.9742-6.5813,7.2722 11.8148,3.2478 25.6008-5.6005 4.963-3.1854 8.4547,1.5834 3.6258,4.9518-2.2315,1.5567-2.2211,1.57 1.2649,1.622 3.588.0536 13.1529-4.0858 19.6864-8.5196 5.3197-3.61 10.3086-3.1835 8.2284.7035-1.4056,2.6263-.2118,2.4092 8.2649-1.5032 4.018-1.8544 8.8562-5.0044 10.7516-7 3.8873-4.0927 8.0538-4.935 8.0538-1.6282 0,1.1.2681,2 .5957,2 1.9578,0 6.5741-3.8996 8.817-7.448 4.1166-6.5126 8.2561-10.6164 10.0244-9.9378 1.8054.6928 1.959,2.214.5877,5.8207-1.266,3.3298.2328,3.3687 4.4965.1167 3.7314-2.8462 7.4787-10.1717 7.4787-14.6202 0-2.9634.1329-3.0612 3.2354-2.3797 3.7116.8152 7.7646,3.232 7.7646,4.63 0,.5234-1.1784,2.4967-2.6187,4.385-1.8976,2.4879-2.2156,3.4333-1.1549,3.4333 2.0703,0 4.3121-2.7567 6.6194-8.1399 2.1799-5.0859 3.9645-6.7852 5.1357-4.8901 .5513.892 1.3383.6031 2.8882-1.0605 2.2105-2.3727 2.8251-4.9095 1.1894-4.9095-.5176,0-1.2191.45-1.5591,1-.792,1.2815-5.1946,1.3031-5.9818.0293-.33-.5338.1318-2.3855 1.0261-4.1149 1.169-2.2605 1.321-3.4492.5408-4.2293-1.7673-1.7674-1.253-2.6851 1.5046-2.6851 2.6904,0 6.2817-3.3538 6.4251-6 .087-1.6049 1.3239-4.0794 7.2352-14.4745 2.0625-3.6269 3.75-7.4307 3.75-8.453s.6557-2.1102 1.4571-2.4177c1.7754-.6813 1.1741,1.2706-3.6792,11.9446-.5251,1.1546-.81,2.9546-.6334,4s-.4585,3.0132-1.4116,4.3731-1.7329,2.9776-1.7329,3.595-.8483,1.8902-1.8852,2.8286c-3.0615,2.7706-3.7683,10.6039-.9567,10.6039 .5192,0 1.5892-1.5443 2.3778-3.4317s1.9271-3.7364 2.53-4.109 .8321-1.7296.5094-3.0155c-.3758-1.4972-.0671-2.6288.8582-3.1467 .917-.5131 1.5586-2.8166 1.7558-6.3029 .3005-5.3136.4017-5.488 3.0767-5.3038 4.0787.2808 6.0729-3.2478 5.1843-9.1732-.3807-2.539-1.2003-5.1565-1.8212-5.8168s-1.6873-2.7552-2.3696-4.6556c-1.135-3.1609-1.0382-3.6718 1.1358-6 3.5039-3.7523 5.6373-8.524 6.2954-14.0808 .6667-5.6291-.6051-7.964-4.3379-7.964-1.5703,0-2.6995-.7793-3.2605-2.25-.7587-1.9891-2.4135-3.7724-10.2652-11.0625-2.7392-2.5433-1.823-4.1044 2.7511-4.6875l3.9218-.5-3.2826-2.4622c-3.1259-2.3446-6.2174-7.053-6.2174-9.4692 0-1.5572 3.6879-4.5686 5.5948-4.5686 2.5383,0 1.0394-2.3613-2.6674-4.202l-3.4274-1.702 5.203-.048c9.4387-.0871 12.3563,2.6843 10.2449,9.7316-1.0984,3.6661-.8958,4.4257 3.8798,14.5499 2.7712,5.8751 5.7437,10.9525 6.6055,11.2832s1.5668,1.4265 1.5668,2.4352 .45,2.1121 1,2.4521c1.221.7546 1.237,1.1237-.4538-10.5-2.3202-15.9518-4.0082-20.7572-10.2765-29.2549-9.3551-12.6826-9.7168-13.7451-4.6787-13.7451 2.2851,0 2.3756-.1746 1.191-2.2985-2.2537-4.0408-8.1357-11.7802-13.1124-17.253-5.6467-6.2096-12.5052-15.8733-16.2816-22.9413-1.4672-2.746-5.9138-9.721-9.8814-15.5-7.5901-11.0556-11.5066-17.9803-11.5066-20.345 0-.7795.6835-1.9846 1.5188-2.6778 2.0289-1.6839 4.5.5635 8.7405,7.9492 2.0891,3.6386 3.3117,4.9808 3.5302,3.8757 .1839-.9299-.4295-2.8565-1.363-4.2812s-1.4466-2.8413-1.1401-3.1479-.5955-3.555-2.0045-7.2188-3.8251-9.9822-5.3691-14.0408-3.6824-8.3337-4.7521-9.5-2.2472-3.552-2.617-5.3015-1.3183-3.7171-2.1079-4.3725-1.4358-1.7376-1.4358-2.405c0-1.0977-1.7007-3.5664-10.018-14.5416-4.1-5.4103-7.5249-11.7904-6.7469-12.5685 .3864-.3863 1.8543.0522 3.262.9746s3.0143,1.3959 3.5702,1.0523 2.4876.9877 4.2927,2.9584c4.6069,5.0296 6.1676,4.4651 2.5354-.9168-1.6704-2.475-3.4476-4.5-3.9494-4.5s-2.0524-2.25-3.446-5-2.9333-5-3.4218-5c-1.13,0-6.0782-8.3816-6.0782-10.2957 0-.7917-2.025-4.4593-4.5-8.15017s-4.5-7.55963-4.5-8.59724c0-2.10171 2.7823-3.95692 5.9343-3.95692 2.638,0 2.5969-.86066-.2833-5.93148-3.1268-5.50477-11.7738-12.75524-16.8386-14.11905-2.2446-.6044-5.7547-2.20649-7.8003-3.5602s-6.8052-3.58059-10.5768-4.94862-7.775-3.16677-8.8964-3.99719c-7.3786-5.46413-9.0992-6.44346-11.3207-6.44346-3.534,0-10.2182-2.13835-10.2182-3.26891 0-1.27912 20.4013-.31338 25.2478,1.19516 2.0613.64159 6.6222,3.60511 10.1355,6.5856s8.231,6.05417 10.4841,6.83039 7.5543,3.37927 11.7808,5.78454c8.9636,5.10112 10.2245,6.78668 20.4256,27.30377 4.9654,9.98687 6.9262,15.02308 6.9262,17.78978 0,2.1227.8392,5.5289 1.8648,7.5695s2.156,5.3175 2.5119,7.282 1.7668,5.0894 3.1352,6.9443 2.4881,4.1995 2.4881,5.2103c0,3.3136 3.0314,9.2055 6.6434,12.9126 3.016,3.0953 3.3823,3.9446 2.4512,5.6842-1.4919,2.7877-1.3176,7.1627.4054,10.1768 .7861,1.375 1.4451,3.4353 1.4646,4.5785s1.4171,4.1645 3.1057,6.7139c2.1135,3.1907 3.3552,6.647 3.9845,11.0902 .5027,3.5502 1.3496,7.504 1.8818,8.7861s1.672,7.7147 2.5328,14.2945c1.298,9.9222 1.9694,12.396 3.9355,14.5 1.3037,1.3952 2.7083,3.6618 3.1213,5.0368 .8986,2.9923 13.1578,23.6866 14.5366,24.5387 .5312.3283 1.8857,2.4002 3.0101,4.6041s4.6628,6.5609 7.8633,9.6822 7.3771,8.6 9.2816,12.175 4.6685,8.5847 6.1424,11.1326 3.7957,7.827 5.1597,11.7312c2.2675,6.4899 2.4801,8.5678 2.4801,24.2332 0,18.739-.4965,21.3265-6.6511,34.6558-1.8419,3.9891-3.3629,8.4891-3.3801,10s-1.1398,4.5472-2.4949,6.7472c-1.5081,2.4486-2.4779,5.5513-2.5005,8-.0204,2.2-.6977,4.8735-1.5052,5.9411s-1.4682,2.9626-1.4682,4.2111c0,4.536-20.5239,26.5602-28.487,30.5694-2.2071,1.1112-4.6079,2.498-5.3351,3.0817-4.4475,3.5701-20.9786,8.6967-28.043,8.6967-9.1329,0-15.7432,1.978-28.502,8.5288l-12.6038,6.4712h-10.4378c-9.5266,0-10.6846.2073-13.2645,2.3747-3.7414,3.1431-21.376,5.6253-39.9647,5.6253-9.8935,0-14.2155.39-16.3068,1.4714-4.2904,2.2186-10.0358,2.5864-15.0553.9638zm-80.00224-44.5971c-1.65815-2.289-3.99021-4.845-5.18235-5.68-1.99216-1.3954-2.11283-1.3757-1.49145.2436 .37184.969.67607,2.1216.67607,2.5614 0,1.3055 6.26837,7.0369 7.69607,7.0369 .8166,0 .1716-1.5805-1.69834-4.1619zm279.82594-70.1441c-.0915-1.7567.1845-4.4315.6134-5.944 1.0851-3.8269-.8924-3.5482-2.8638.4036-1.8547,3.7178-1.8715,3.9319-.5751,7.3414s3.0389,2.2968 2.8255-1.801zm-299.16181-47.194c-.27457-3.85-.86096-7.9-1.30309-9-.71795-1.7862-.87434-1.6793-1.46301,1-.8872,4.038-1.0332,21.3838-.20603,24.4773 1.19614,4.4733 3.53968-8.5191 2.97213-16.4773zm298.99311-19.9569c-.3257-.8487-1.0722-1.5431-1.6588-1.5431-.7395,0-.7243.6394.0497,2.0856 1.2413,2.3194 2.5393,1.8818 1.6091-.5425zm-3.655-4.3431c0-1.0517-2.1719-3.2-3.2351-3.2-.4594,0-.3536.9.2351,2 1.057,1.9749 3,2.7521 3,1.2zm-241.8418,146.8c-2.1833-2.953-2.1862-3-.1881-3 2.9706,0 2.5413-1.2944-2.4701-7.447-4.6106-5.6606-5.7894-9.553-2.893-9.553 1.144,0 1.3951-.5042.8714-1.75-.4045-.9625-.9702-2.8412-1.257-4.1748s-1.0792-3.5001-1.761-4.8142c-1.5964-3.0772-.7542-6.261 1.6563-6.261 2.1736,0 2.4172-1.0661.648-2.8353-1.5049-1.505-2.0822-19.8505-.6524-20.7341 .533-.3294.6852-1.4936.3381-2.587-.8701-2.7415.2987-6.8436 1.95-6.8436 1.3262,0 3.5996,6.8326 3.5996,10.8184 0,1.063 1.125,4.4765 2.5,7.5856 2.9271,6.6187 3.0858,8.4472.8734,10.0649-1.3153.9618-1.4075,1.5987-.4817,3.3287 1.5047,2.8116 1.068,8.4122-.7649,9.8078-1.71,1.302-.8893,4.1647 1.4515,5.063 .893.3426 1.9779.0498 2.4109-.6508 1.0384-1.6803 3.0108-.3965 3.0108,1.9596 0,2.9251-1.0887,5.0228-2.607,5.0228-1.8005,0-1.7655,2.1725.107,6.6542 .825,1.9745 1.5,4.6119 1.5,5.8609s-.675,2.5299-1.5,2.8465-1.5,1.4897-1.5,2.607c0,2.9474-2.2845,2.4904-4.8418-.9686zm-3.6582-7c-.3399-.55-.1414-1 .441-1s1.059.45 1.059,1-.1984,1-.4409,1-.7191-.45-1.0591-1zm192.5048-11.1357c-.0026-.3497.6675-1.9247 1.4891-3.5 .8643-1.6574 1.4964-5.5374 1.5-9.208 .0053-5.4998.2722-6.4131 2.0061-6.8666 2.2925-.5995 2.5789-3.3308.8648-8.2479-.7124-2.0435-.7783-3.496-.1771-3.8992 .527-.3535 1.2488-1.4301 1.6039-2.3926 .7501-2.033 4.6997-2.3315 6.6172-.5 1.3732,1.3114 1.3422.6042-.428-9.7915-.5276-3.0984-.3139-4.3521.9155-5.3725 2.8494-2.3648 2.0893-10.449-1.6162-17.1893-2.0681-3.7619-2.8729-6.1965-2.25-6.8061 1.5819-1.548 6.4699-2.4539 6.4699-1.199 0,.6096-.7301,1.1084-1.6224,1.1084-1.2755,0-1.3746.2987-.4632,1.3967 .662.7978 2.0688,1.1589 3.2803.8421 1.8136-.4743 2.0338-.2203 1.5183,1.7509-.3548,1.3567.1486,3.7881 1.2232,5.9079 1.0044,1.9813 2.1189,5.8524 2.4767,8.6024 .8686,6.6768-.8152,19.1821-2.8919,21.4768-.9056,1.0006-1.8536,3.4891-2.1067,5.53s-.9927,4.6742-1.6434,5.8519c-1.7185,3.1102-4.7002,11.8518-4.7382,13.8913-.0224,1.2008-.8332,1.75-2.5836,1.75-1.6689,0-3.7421,1.2968-5.9953,3.75-1.8943,2.0625-3.4464,3.4639-3.449,3.1143zm22.0742-17.281c-.0434-1.0542.1929-1.6448.5252-1.3125s.3678,1.1948.0789,1.9167c-.3192.7977-.5561.5607-.6041-.6042zm-97.4403-46.7836c-.9693-1.5138-1.3878-4.3502-1.2246-8.2997 .1518-3.6725-.4623-8.2811-1.583-11.8803-2.2073-7.0885-2.1914-6.6197-.2241-6.6197 1.1404,0 1.3962-.5081.8809-1.75-1.651-3.9791-2.6792-9.3091-2.0912-10.8413 .4299-1.1202 1.4212-1.4856 3.1396-1.157 3.2714.6253 4.1171-.8723 1.8853-3.3384-1.241-1.3713-1.4582-2.2767-.7226-3.0123 1.8018-1.8018-4.2814-15.2576-8.199-18.1357-.55-.4041.4767-.7416 2.2814-.75 3.8026-.0178 4.9186-1.839 3.1508-5.1421-.672-1.2557-1.2884-4.3797-1.3697-6.9423-.0919-2.8967-.7937-5.305-1.8552-6.3665-.939-.939-1.7073-3.0845-1.7073-4.7678 0-3.9755-3.4215-9.4461-7.0965-11.3466-3.5057-1.8128-3.768-3.45-.5529-3.45 1.535,0 4.0827,1.8215 7.3428,5.25 2.7457,2.8875 6.0902,5.9848 7.4322,6.8828 6.6041,4.4194 13.9277,21.7519 13.8628,32.8082-.0212,3.6075.3297,8.134.7799,10.059s.4419,6.3182-.0184,9.7628c-.5246,3.9264-.4496,7.657.2011,10 2.0505,7.3835 1.1456,14.2372-1.8797,14.2372-1.3067,0-2.0413,1.5644-3.0866,6.5736-1.5227,7.2965-2.456,8.9194-5.679,9.8751-1.6307.4836-2.5727.06-3.667-1.649zm10.0236-27.0497c-.2774-.6875-.5044-.125-.5044,1.25s.227,1.9375.5044,1.25 .2774-1.8125 0-2.5zm-5.1623-15.75c-.3399-.55-.8164-1-1.059-1s-.441.45-.441,1 .4766,1 1.0591,1 .7809-.45.4409-1zm6.5-7.8776c0-.4826-.675-1.4377-1.5-2.1224-1.2165-1.0096-1.5-.9698-1.5.2109 0,.8006.3,1.7557.6667,2.1224 .9497.9497 2.3333.8246 2.3333-.2109zm-4.8166-20.3391c-.7176-.7176-1.1834-.7766-1.1834-.15 0,1.3348 1.1826,2.5174 1.85,1.85 .2842-.2842-.0158-1.0492-.6666-1.7zm47.2755,61.1501c-.3625-.5866-.419-1.3066-.1255-1.6001 .7163-.7163 2.6666.5458 2.6666,1.7257 0,1.278-1.7264,1.1927-2.5411-.1256zm-193.772-4.1834c-.7476-1.2375-2.0294-3.375-2.8486-4.75-2.1472-3.6045-4.1862-11.6508-3.4431-13.5873 .4678-1.2192 1.3938-1.5049 3.507-1.0823l2.8713.5743-2.3445-4.8598c-3.7658-7.8063-4.0732-10.0637-1.463-10.7463 2.2556-.5898 2.3005-1.2307.4954-7.059-.5889-1.9015-.2047-2.4331 2.4193-3.3479 3.6214-1.2624 3.675-1.5588 1.4267-7.889-1.6225-4.5682-1.6134-4.8847.2202-7.6343 1.1605-1.7401 2.233-5.8187 2.7265-10.3684 .4474-4.125.9822-8.85 1.1885-10.5s.6769-7.05 1.046-12c.4836-6.4865 1.1822-9.6284 2.5015-11.25 1.0068-1.2375 2.0271-2.25 2.2674-2.25 .4966,0 1.9293,27.4107 1.7505,33.4908-.0689,2.3403-.7161,4.326-1.5649,4.801-1.1452.6408-1.3153,2.2326-.8147,7.6194 .4289,4.6148.2685,7.0345-.4978,7.508-.6632.41-1.1306,3.5383-1.1306,7.5684 0,4.7729-.4578,7.3273-1.5,8.3695-.8437.8437-1.5,3.2872-1.5,5.585 0,2.2468-.5037,4.8916-1.1193,5.8773-.8811,1.4109-.651,2.7105 1.081,6.1055 2.563,5.0239 1.5614,7.5073-2.1045,5.2179-3.221-2.0115-4.1627-.1236-2.4686,4.949 3.3276,9.9634 2.9148,15.6447-.7017,9.6582zm230.1797-58c-1.2483-1.7875-5.329-6.5969-9.0681-10.6875s-6.7985-8.0422-6.7985-8.7813c0-2.3549 2.5987-2.4506 6.3555-.234 5.1836,3.0584 4.7025.6236-.9463-4.7888-3.6936-3.5391-4.4737-4.8651-3.9919-6.7847 .4428-1.7642-.185-3.2785-2.4092-5.8118-3.1794-3.6211-3.8301-6.1944-1.7581-6.9527 .8648-.3165.5798-1.1031-.9248-2.5523-1.9252-1.8543-2.04-2.4528-1-5.2131 1.0519-2.7919.9394-3.309-1.0752-4.9413-1.2375-1.0027-2.25-2.8335-2.25-4.0684 0-1.235-1.1948-3.8119-2.6551-5.7265-2.307-3.0245-2.4871-3.7503-1.3731-5.534 1.1513-1.8436.8868-2.3964-2.5949-5.4221-2.1323-1.853-4.4394-3.8104-5.1269-4.3498s-1.25-1.4128-1.25-1.9412c0-1.5219 2.2269-1.1196 5.7742,1.0432 3.8671,2.3578 4.2258,2.4147 4.2258.6706 0-.7291-1.125-2.3826-2.5-3.6743-2.6454-2.4853-3.1921-4-1.4436-4 2.2802,0 6.8692,6.3572 6.8085,9.432-.0332,1.6874 1.0454,5.318 2.3971,8.068s3.024,6.8 3.7164,9 2.4815,5.35 3.9759,7c4.4043,4.8631 9.5319,16.3637 9.6465,21.636 .0654,3.0124.8533,5.693 2.25,7.6543 1.1821,1.6601 2.1492,3.5338 2.1492,4.1637s.7309,2.5586 1.6241,4.2859c1.5522,3.0017 1.5301,3.2168-.5,4.8607-2.6717,2.1634-2.6607,2.3292.4237,6.3731 3.1696,4.1556 4.4716,10.5263 2.1512,10.5263-.8595,0-2.5841-1.4625-3.8324-3.25zm-230.8666-73.5471c0-.9884 1.771-3.5263 3.9354-5.6398 3.5124-3.4298 4.0086-4.5264 4.6165-10.203 .3746-3.4981 1.0787-6.3601 1.5646-6.3601s.8835-.8863.8835-1.9696 .9-3.572 2-5.5304 2-4.6171 2-5.908 .6276-2.868 1.3947-3.5046c1.4535-1.2063 2.632-6.4382 2.6101-11.5874-.0072-1.7067 1.0373-4.2934 2.423-6 2.304-2.8377 2.5303-2.9074 4.1814-1.287 1.4841,1.4565 1.562,2.1158.5203,4.4022-.8541,1.8746-.9078,3.0064-.1773,3.7369 1.9182,1.9182 1.1852,7.1702-1.3307,9.5338-1.5942,1.4976-2.562,3.7811-2.9349,6.9243-.3059,2.5794-.854,6.2648-1.2179,8.1898-.3638,1.925-.7307,4.5039-.8151,5.731s-1.1736,2.9453-2.4203,3.8184-1.9896,2.0358-1.6509,2.5839 .3254,2.5449-.0297,4.4375c-.5066,2.7007-1.3836,3.7495-4.0756,4.8743-1.8865.7883-4.4255,2.3606-5.6421,3.494-2.7517,2.5636-5.835,2.703-5.835.2638zm52.5941-62.0041c-.2796-.9344-.4562-4.6238-.3925-8.1988s-.2108-7.5122-.61-8.7493c-.5896-1.827-.244-2.4324 1.8413-3.2252 1.7982-.6837 2.5671-1.7146 2.5671-3.4418 0-1.3561.3909-2.7073.8687-3.0026s1.1739-2.4458 1.547-4.779 1.2197-4.57674 1.8813-4.98563 1.2154-2.753 1.2306-5.20913c.0216-3.50955.5871-4.98426 2.6409-6.88768 1.4373-1.33209 3.3374-2.69985 4.2224-3.03945 .8996-.34521 1.6091-1.74749 1.6091-3.18024 0-1.57607.6738-2.76287 1.75-3.0825 .9625-.28585 2.9453-1.12657 4.4062-1.86826l2.6562-1.34853-1.8842,4.14965c-1.0363,2.2823-1.9084,5.27464-1.938,6.64964s-.7145,3.37351-1.522,4.44113-1.4682,3.18929-1.4682,4.71482c0,1.75023-.7379,3.16863-2,3.84405-1.453.77764-2,2.09382-2,4.81263 0,2.0583-.6722,4.7021-1.4938,5.8751s-1.6624,4.0039-1.8684,6.2909-.8837,4.6673-1.5061,5.2897-1.1317,2.2088-1.1317,3.5253c0,1.5311-.7017,2.5771-1.9475,2.9029-1.4521.3797-2.0245,1.5366-2.25,4.5476-.2317,3.0939-.8167,4.2273-2.5013,4.846-1.6595.6095-2.3235.3909-2.7071-.8913zm109.8666-17.2399c-1.6024-1.6726-5.0216-4.3938-7.5982-6.0472-5.6675-3.6368-6.4894-5.3487-3.5706-7.4364l2.2081-1.5793-2.0756-1.71716c-3.4753-2.87499-5.885-7.35005-5.5708-10.34547 .2391-2.28023-.3085-3.18364-2.7804-4.58647-1.6931-.96081-3.3501-2.64693-3.6822-3.74693s-1.5685-2.79302-2.7475-3.76227c-2.0022-1.64612-2.0277-1.83088-.3869-2.80339 1.4102-.83576 1.5421-1.44197.669-3.07338-.5982-1.11774-.8471-2.27273-.5532-2.56665 1.1496-1.14966 7.7398.91323 8.9001,2.78598 .6751,1.08967 2.9492,3.17726 5.0534,4.63908 3.4361,2.38699 3.7643,2.98642 3.2211,5.88213-.6952,3.70581 2.4667,9.23547 7.598,13.28765 2.6337,2.07981 2.9432,2.82756 2.3902,5.77528-.4762,2.5382-.1219,4.1072 1.4148,6.2653 1.1275,1.5834 2.05,3.4491 2.05,4.1459s.6859,2.0247 1.5241,2.951c1.817,2.0077.9559,4.9734-1.444,4.9734-.9382,0-3.017-1.3685-4.6194-3.0411z" fill="#606060"/>
 </g>
</svg>
