<?xml version="1.0" encoding="UTF-8"?>
<svg viewBox="0 0 661.21521 235.83693" xmlns="http://www.w3.org/2000/svg">
 <defs>
  <linearGradient id="a" x1="445" x2="440" y1="412.36" y2="387.36" gradientUnits="userSpaceOnUse">
   <stop stop-color="#fff" stop-opacity=".78431" offset="0"/>
   <stop stop-color="#b3b3b3" stop-opacity=".78431" offset="1"/>
  </linearGradient>
 </defs>
 <g transform="translate(59.259 -271.74)">
  <path d="m35.75 271.62c-13.506 0.56803-25.886 8.8914-33 20.156-6.8251 10.581-8.4697 23.683-7.3662 36.012 1.6085 15.363 9.0282 29.796 19.722 40.825 5.1352 5.7995 12.04 10.057 19.648 11.66 11.876 2.8671 24.2 1.9405 36.282 1.4153 6.8976-0.46687 13.935 0.38171 20.318 3.1317 12.348 4.8952 22.824 13.419 35.054 18.57 16.459 7.2097 34.318 12.094 52.41 11.521 8.2617-0.37111 16.608-1.6635 24.276-4.8547 5.6124-2.5173 9.4624-8.1134 10.327-14.139 1.2069-7.6307-2.0621-16.348-9.1398-19.986-4.9539-2.0885-10.118-3.6465-15.333-4.9368-7.3196-1.6441-14.612-3.4068-21.842-5.4072-4.6518-1.297-9.4292-2.0902-14.09-3.3199-5.2532-1.9805-10.365-4.4005-15.21-7.24-12.871-7.5835-22.835-18.981-32.161-30.441-11.563-14.307-22.445-29.552-37.221-40.798-9.3054-7.201-20.679-12.559-32.674-12.17zm6.25 29.906c9.1145 1.0526 16.56 8.183 19.938 16.438 3.7803 8.5999 3.4797 19.47-2.5938 26.969-3.2242 3.9171-8.9083 4.3264-13.572 3.4956-14.061-2.8952-24.05-18.409-20.809-32.407 1.6961-7.7823 8.7496-14.761 17.038-14.495z" fill="#350d0d"/>
  <path d="m600.46 398.13c-8.8552 11.027-207.9 32.318-457.28 49.941-22.065-28.516-22.77-38.491-4.9344-69.826 124.69-8.8113 71.224-2.6554 106.83-1.8795 118.65 2.5856 355.38 21.764 355.38 21.764z" fill="#b3b3b3" stroke="#cbcbcb" stroke-width="3"/>
  <path d="m600 382.36c-10-10-210.18-9.5558-460 0-18.839 30.743-18.456 40.735 2.6756 69.949 124.91-4.7779 71.092-5.0929 106.4-9.7301 117.67-15.452 350.92-60.219 350.92-60.219z" fill="#b3b3b3" stroke="#cbcbcb" stroke-width="3"/>
  <path d="m565 382.36-325 55c-5 5 10 5 10 5s345-55 350-60c-15.505-5-24.875-2.25-35 0z" fill="url(#a)"/>
  <path transform="matrix(.5 0 0 .5 100 206.18)" d="m160 422.36c0 11.046-8.9543 20-20 20s-20-8.9543-20-20 8.9543-20 20-20 20 8.9543 20 20z" fill="#808080" stroke="#cbcbcb" stroke-linecap="round" stroke-linejoin="round" stroke-width="3"/>
  <path d="m185.62 378.59c-60.69 7.4378-122.39 15.496-183.33 6.0439-40.97-1.621-74.436 46.93-57.099 84.442 12.579 27.991 45.741 42.88 75.334 36.895 28.064-3.9276 52.191-19.76 77.873-30.434 43.564-16.178 93.158-13.978 133.59-38.765 14.571-11.332 12.135-35.22-1.5675-46.27-11.629-11.085-29.137-16.604-44.795-11.912zm-94.884 58.982c3.2698 9.0327-2.825 18.63-18.684 21.942-22.696 8.3601-47.493 7.6153-70.588 14.208-15.858 0.36928-31.091-15.672-25.985-31.686 3.6223-14.806 21.235-23.866 35.404-18.235 27.136 5.1499 70.659-11.627 79.853 13.771z" fill="#350d0d"/>
  <path transform="matrix(1 0 0 -1 50 834.72)" d="m160 422.36c0 11.046-8.9543 20-20 20s-20-8.9543-20-20 8.9543-20 20-20 20 8.9543 20 20z" fill="#808080" stroke="#cbcbcb" stroke-linecap="round" stroke-linejoin="round" stroke-width="3"/>
 </g>
</svg>
