<?xml version="1.0" standalone="no"?>
<!DOCTYPE svg PUBLIC "-//W3C//DTD SVG 20010904//EN"
 "http://www.w3.org/TR/2001/REC-SVG-20010904/DTD/svg10.dtd">
<svg version="1.0" xmlns="http://www.w3.org/2000/svg"
 width="1024.000000pt" height="1024.000000pt" viewBox="0 0 1024.000000 1024.000000"
 preserveAspectRatio="xMidYMid meet">

<g transform="translate(0.000000,1024.000000) scale(0.100000,-0.100000)"
fill="#003932" stroke="none">
<path d="M4855 8669 c-631 -57 -1240 -269 -1757 -611 -189 -126 -288 -206
-476 -384 -544 -520 -886 -1127 -1036 -1844 -58 -278 -93 -655 -82 -900 25
-555 130 -991 346 -1447 236 -498 634 -972 1095 -1308 422 -307 942 -538 1425
-634 567 -112 1022 -109 1599 10 527 109 1083 376 1531 735 165 132 425 390
544 539 189 238 379 552 481 799 98 236 193 578 239 856 159 961 -110 2031
-700 2787 -177 226 -415 466 -638 642 -90 71 -320 224 -441 293 -413 236 -898
393 -1395 453 -159 20 -589 28 -735 14z m1064 -749 c210 -51 370 -183 472
-393 21 -43 39 -83 41 -88 2 -6 31 -3 73 7 108 25 265 15 378 -23 117 -41 187
-84 271 -169 82 -82 153 -199 193 -319 24 -72 27 -95 28 -239 l2 -159 61 -22
c180 -65 340 -223 412 -405 94 -239 50 -537 -109 -741 -28 -35 -51 -67 -51
-71 0 -4 27 -21 61 -39 124 -67 268 -232 319 -366 37 -99 53 -207 47 -323 -8
-170 -51 -293 -149 -425 -25 -33 -188 -206 -364 -385 -176 -179 -506 -516
-734 -748 -451 -461 -531 -535 -695 -641 -281 -183 -549 -282 -900 -333 -150
-22 -485 -16 -640 10 -476 82 -858 271 -1184 586 -328 318 -514 638 -621 1065
-65 259 -63 203 -67 1481 -5 1183 0 1415 31 1535 9 33 39 107 68 164 43 87 66
119 138 192 96 97 185 152 315 196 68 22 98 26 205 27 170 1 280 -29 408 -111
143 -91 278 -269 323 -423 7 -25 14 -46 15 -48 1 -2 40 36 86 84 470 494 873
911 931 962 175 154 414 215 636 162z"/>
<path d="M5687 7550 c-95 -24 -142 -61 -280 -219 -56 -64 -165 -183 -242 -266
-77 -82 -289 -310 -470 -505 -181 -195 -406 -434 -500 -530 -94 -96 -197 -203
-229 -237 -33 -35 -63 -63 -67 -63 -5 0 -10 208 -11 463 l-3 462 -27 57 c-35
76 -107 151 -177 185 -49 24 -68 27 -146 27 -114 0 -183 -26 -258 -94 -60 -55
-101 -132 -118 -223 -6 -37 -9 -476 -6 -1279 3 -1346 1 -1282 67 -1543 155
-613 665 -1128 1272 -1284 197 -51 318 -64 533 -58 209 6 356 30 530 88 189
63 449 210 590 334 56 49 425 420 1222 1225 374 378 378 384 378 530 0 104
-21 156 -95 234 -82 87 -189 120 -306 96 -110 -23 -136 -43 -389 -307 -408
-423 -568 -582 -601 -598 -94 -45 -197 4 -225 108 -21 80 -4 103 301 412 152
154 448 457 658 674 418 430 430 446 440 567 15 188 -121 348 -307 362 -83 6
-186 -22 -244 -65 -21 -16 -145 -142 -275 -280 -281 -298 -807 -846 -885 -922
-42 -40 -65 -55 -97 -61 -45 -8 -99 2 -136 27 -30 19 -64 90 -64 132 0 69 -27
39 710 797 814 838 760 773 768 919 5 101 -19 172 -85 245 -122 136 -330 151
-473 34 -36 -29 -508 -527 -934 -983 -389 -418 -452 -479 -510 -496 -138 -41
-254 93 -190 218 10 18 96 113 193 212 309 315 903 933 984 1022 66 74 80 95
98 155 64 209 -78 418 -293 433 -34 2 -80 0 -101 -5z"/>
</g>
</svg>
